<svg xmlns="http://www.w3.org/2000/svg" viewBox="0 0 40 40">
    <rect x="0.8" y="0.2" width="39" height="39" rx="9.1" ry="9.1" fill="#686DF4" />
    <path
        d="M29.037 16.764a6.1 6.1 0 0 0-1.328-1.325q.03.333.03.671v3.996a.867.867 0 0 1-1.734 0c0 .005-.018-4.35-.02-4.445-.069-2.79-2.312-5.045-5.032-5.445V8.343a.867.867 0 0 0-1.734 0v1.873c-2.852.421-5.048 2.885-5.048 5.85v4.27l-1.54 1.188c-2.637 2.032-3.255 5.82-1.286 8.504a6.103 6.103 0 0 0 8.639 1.224l7.765-5.985c2.637-2.031 3.256-5.82 1.286-8.503zm-5.855 9.578a1 1 0 0 1-.36.534l-3.816 2.942c-1.933 1.491-4.787 1.167-6.243-.79a4.367 4.367 0 0 1 .838-6.06l3.893-3.002a1 1 0 0 1 .609-.213c1.264-.006 2.812 1.125 3.76 2.354s1.645 3.015 1.32 4.235m-2.784-10.804L15.906 19v-2.935a4.186 4.186 0 0 1 4.182-4.182c1.668 0 3.11.982 3.78 2.396a6.06 6.06 0 0 0-3.47 1.257z"
        fill="#fff" />
</svg>
