<svg xmlns="http://www.w3.org/2000/svg" viewBox="-3.5 0 61 61">
    <path
        d="M47.86 18.28A32.9 32.9 0 0 0 40.79 8.1c-2.92-2.61-5.18-2.59-8 0a19 19 0 0 0-3.08 3.73c-6.57 10.31-11 21.33-11.28 33.74A23.5 23.5 0 0 0 19 52c1.13 4.36 3.72 5.94 8.16 5.06A42 42 0 0 0 35.65 54c-2.1 3.17-7.81 6.56-11.33 6.9a9.13 9.13 0 0 1-9-4.38 21.73 21.73 0 0 1-3.19-11.08A49.4 49.4 0 0 1 16 23 56.7 56.7 0 0 1 26 6.7a19.8 19.8 0 0 1 4.7-3.85C35.13.29 39.6 1.05 42.9 5c2.9 3.46 4.2 7.59 4.81 12Z" />
    <path
        d="M15.56 59.59C11 61.5 6.57 60 3.78 55.75A24 24 0 0 1 .24 44.57C-1.09 30.32 3.11 17.62 11.4 6.16A15.16 15.16 0 0 1 18.14.68 8.68 8.68 0 0 1 27 1.92a3.5 3.5 0 0 1 .85.8 16.2 16.2 0 0 0-3.05 2.45c-2.63-1.48-4.63.17-5.72 1.16a17.5 17.5 0 0 0-3.6 4.67C9.63 21.85 6 33.24 6.65 45.71a21.8 21.8 0 0 0 1.24 6.5c.83 2.24 2.05 4.21 5.47 4.51a11 11 0 0 0 2.2 2.87m26.62-32.7L40.65 29c-2.89-.89-7 .54-9.57 4.24 1.32-5.47 6.3-7.76 11.1-6.35m5.49 12.22a9.3 9.3 0 0 0-1.61-6.6l1-2c1.94 1.87 2.23 5.39.61 8.6"
        fill="#56c4fb" />
    <path
        d="M54.68 37.63c-1.27 10.42-9.8 13.08-17.07 12.28-9.19-1-13.06-8.07-12.42-16.43.69-9.21 7.66-13.56 16.76-12.75a18 18 0 0 1 1.84.22c.87.17 2.33.55 2.33.55l-1.45 2.05-.56.78-1.23-.22a14.5 14.5 0 0 0-5-.15c-6.17.91-9.43 4.52-9.53 10.83-.07 4.5 1.23 8.51 5.63 10.62 4.59 2.2 9.22 2.12 13.43-.94s5.5-11 2.55-15.88l-1.28-2.14L50 23.83c4.4 3.79 5.32 8.59 4.68 13.8"
        fill="#56c4fb" />
    <path
        d="M49.83 19.53q-5.7 7.89-11.4 15.8l-.23.32-.21.29c-1.12 1.56-1 2.7.32 3.5s2.87.43 3.64-1.27c2.78-6.08 5.51-12.18 8.26-18.26l1.08-2.41Zm-9.38 18.53a.86.86 0 0 1-.81.37 1 1 0 0 1-1-1 1 1 0 0 1 1-1 .87.87 0 0 1 .84.45 1.09 1.09 0 0 1-.03 1.18"
        fill="#56c4fb" />
</svg>
