<svg xmlns="http://www.w3.org/2000/svg" viewBox="0 0 81 81">
    <g transform="translate(4 3.7)">
        <circle cx="36.5" cy="36.8" r="37" fill="#40403F" stroke="#4A494A" stroke-width="7" />
        <path fill="#E17926"
            d="m12.3 20.6-1.1-1.4 2.2-1.3a6 6 0 0 0-1.1 2.7m9.6 16.7h-1.8l.3 1.3 1.8-.5c-.2-.2-.3-.5-.3-.8m-.7 12-.3.4-.1 1 .3-.1 1.5-.4.1-2.1zm36.2-36.2A47.7 47.7 0 0 0 18.6 15c1 .1 2 .3 2.9.7 1.4-.6 2.8-1.2 4.3-1.6 4.6-1.5 9.4-2.3 14.3-2.4 5 0 10 .9 14.8 2.5a75.5 75.5 0 0 0-6.7 21.3 45.8 45.8 0 0 0 1.9 20.4 36.3 36.3 0 0 1-18.3 5.4 32 32 0 0 1-10.2-1.7c-.7.3-1.5.4-2.2.4l-.2.6c4 1.6 8.3 2.4 12.6 2.5 7.1 0 14-2.4 20.6-6.4-5.4-13.5-2.6-28 5-43.6m-40 14.2-1.1-2.1-.5.9.7 1.3z" />
        <path fill="#F78F20"
            d="M49.1 35.5c1.2-7.6 3.6-15 7-21.9a46.2 46.2 0 0 0-35.9 1.7c2.1.5 3.9 1.6 5.4 3.1l.3.3c.6.5.9 1.4.5 2.1a5.6 5.6 0 0 1-2.7 3.2c-1.5.7-3.3.8-4.8.3-.5-.1-1-.2-1.4-.1-.5.1-.9.5-1.1.9l1.1 2.1 2.2-.1c1.9-.1 3.7-.1 5.5.1.8.1 1.7.3 2.5.6l.9.5c.3.3.5.7.6 1 1.2 3.3-1.2 6.2-4.2 7.2-1.2.4-2.4.6-3.6.7H21l.2 1.1 2.1-.6 3-.6c.8-.1 2-.3 2.6.2.3.3.6.7.7 1.2l.9 2.2c.2.6.3 1.3.2 1.9-.2 1.1-.9 2-1.9 2.5-1.8 1-3.6 1.8-5.5 2.6l-1.4.8-.1 1.7c2.2-.6 4.5-.7 6.7-.3l1.2.4c.6.4 1 1.2 1 2s-.3 1.5-.7 2.2a9 9 0 0 1-4.8 3.8l-2.8.8c-.7.2-1.3.5-2 .6v.1c3.7 1.4 7.6 2.1 11.5 2.1A37 37 0 0 0 51.3 56a39.6 39.6 0 0 1-2.2-20.5" />
        <path fill="#FDCDA0"
            d="M37.4 29.1c1.4-.2 2.7-2 3.1-4.2s-.9-4-3-3.8-3.3 2.3-3 4.5 1.6 3.7 2.9 3.5" />
        <path fill="#E17827"
            d="M44.6 41c-3.8-2.5-5.6-6.6-8.6-10.9-2.8 5.1-4 10.5-7.6 14.5 6 .4 11.3-1.3 16.2-3.6" />
        <path fill="#C86228"
            d="M40 48.3C35.1 43.8 33.2 37 25.9 33c1.1 6.3 1.3 11.7-2.7 16.3a30 30 0 0 0 16.8-1" />
        <path fill="none" stroke="#E17827" stroke-miterlimit="10" stroke-width="4"
            d="M46 43a41 41 0 0 1-23.8 3.9c1.4-8.1.2-15.9-5.3-23.1a53.9 53.9 0 0 1 32.6-5c-4 8.6-5.8 16.7-3.5 24.2z" />
        <path fill="#F7DDC4"
            d="M25.7 18.5a12.3 12.3 0 0 0-7-3.5 4 4 0 0 0-1.9.1c-2.7.7-4.9 4.3-4.6 7 .3 1.7 1.5 2.8 2.8 3.8l.4.2c.4.1.6-.7.8-1 .3-.4.7-.8 1.1-.9.5-.1 1 0 1.4.1 1.6.5 3.3.4 4.9-.2a5.3 5.3 0 0 0 2.7-3.2c.2-.4.2-.8.1-1.2l-.6-.9z" />
        <path fill="#EACEB1"
            d="m23.7 24.1.5-.3c-1.6-.2-2.2 0-2.6-.1s-1.7 0-2.2-.2-1.1-.1-1.5-.2l-1.8-.3c-.9-.1-1.7-.5-2.3-.1l-1 .7a8 8 0 0 0 2.7 2.4c.4.1.6-.7.8-1 .3-.4.7-.8 1.1-.9.5-.1 1 0 1.4.1 1.7.6 3.4.5 4.9-.1" />
        <path fill="#F8E9DB"
            d="m26.6 19.7-.6-.9-.3-.3a12.3 12.3 0 0 0-7-3.5 4 4 0 0 0-1.9.1 4.4 4.4 0 0 0-2.2 4c.2 3.5.9 3.5 2.8 5.1.5-.1 1 0 1.4.1 1.6.5 3.3.4 4.9-.2a5.3 5.3 0 0 0 2.7-3.2c.2-.4.3-.8.2-1.2"
            opacity=".3" />
        <path fill="#34B9EB"
            d="M26.9 19.2c-.3-.2-.5-.3-.8-.3l-.9-.3-1.5-.4c-1.2-.3-2.6-.6-3.7 0a2 2 0 0 0-1.1 1.5c-.1.6.1 1.2.5 1.6a5 5 0 0 0 1.8.9c1.1.5 2.3.8 3.5 1h.4l.2-.2c.4-.2.7-.5 1-.9s.5-.9.6-1.4l.1-1.1z" />
        <path fill="#F7DDC4"
            d="m63.3 34.3-2.8-5.2-.5-.9-.2-.3-.4-.6-.2-.3-.6-.9c-.5-1-1.3-1.8-2.2-2.3-1-.4-2-.6-3.1-.7-1.7-.4-3.4-.4-5.1-.1a12 12 0 0 0-6 4.1c-1.9 1.9-3.5 4-4.7 6.4l-.2.4c-.4.9-.5 1.9-.3 2.8.5 1.7 1.9 3 3.7 3.3H43c1-.1 2-.4 2.9-.8 2.6-.9 4.9-2.6 6.4-4.9l-1.1 2.1-.6 2.1-.1.4c-.2.3-.6.3-.9.4l-.3.2c-.3 5.9.7 11.8 2.9 17.2a45.5 45.5 0 0 1-9.4 4.6c4.2.6 8.7.8 12.4-1.6 2.7-1.8 4.4-4.5 5.7-7.4 1.4-3 2.6-6 3.6-9.2q.6-1.8.6-3.6c0-1.8-1-3.5-1.8-5.2" />
        <path fill="#9F87BF"
            d="m42.2 31-.9.6-2.1 1.8c-.7.6-1.7 1.2-2 2.2a3 3 0 0 0 .1 1.6c.2.9.8 1.7 1.5 2.2 1.4.9 3 .1 4.1-.8s2.4-1.6 3-2.9-.2-2.4-.9-3.3-1.6-1.7-2.7-1.4z" />
        <path fill="#FFF"
            d="M45.3 32.6 38 38.5l.8.8c1.4.9 3 .1 4.1-.8s2.4-1.6 3-2.9c.6-.9 0-2.1-.6-3"
            opacity=".1" />
        <path fill="#F7DDC4"
            d="m28.5 28.5-.9-.5c-.8-.3-1.6-.5-2.5-.6-1.8-.2-3.7-.2-5.5-.1-1.9 0-3.5 0-5.1.9a6.2 6.2 0 0 0-2.7 4.3c-.3 1.5 0 3.1.9 4.4 1.5 1.9 4 2.6 6.3 1.7l.4-.2.3-.6c.3-.5 1.2-.3 1.7-.3 1.2-.1 2.4-.3 3.6-.7 3-1.1 5.4-3.9 4.2-7.2a3 3 0 0 0-.7-1.1" />
        <path fill="#5D509E"
            d="M21.3 31.4q0-.9.6-1.5a3 3 0 0 1 2-.9l1.2-.2 3.3-.3.5.1c.3.1.4.4.5.6.2.5.3 1.1.2 1.6l-.2 2.2-.1.3c-.2.3-.7.4-1 .4a20.6 20.6 0 0 1-5.5-.1c-1-.4-1.5-1.3-1.5-2.2" />
        <path fill="#F7DDC4"
            d="M11.6 44.3a6 6 0 0 1 1.4-2.1c1.2-1.3 3-1.9 4.7-2.6a38.6 38.6 0 0 1 8.8-2.2c.8-.1 2-.3 2.6.3.3.3.5.7.7 1.2l.8 2.3c.2.6.2 1.3.2 1.9-.3 1.1-1 2-2 2.5-1.8.9-3.7 1.7-5.6 2.4-.7.3-1.4.7-2 1.3a4.2 4.2 0 0 1-2.9 1.6c-1.5.3-3 .2-4.4-.4-2.2-1.3-2.8-4-2.3-6.2" />
        <path fill="#41439A"
            d="M23.9 40c.7-.6 1.5-1.1 2.4-1.2l2.8-.6 1.3-.2c.3.1.6.5.9 1q.6 1.05.6 2.1l-.1.8-.6.5-1.5.6-2.4.7c-1 .2-2.1.5-3-.1-.4-.3-.7-.8-.8-1.3a3 3 0 0 1 .2-2.1z" />
        <path fill="#FFF"
            d="m31.8 40.1-8.1 2.3c.1.4.4.8.7 1.1.8.7 2 .4 3 .1l2.4-.7 1.5-.6.6-.5.1-.8z"
            opacity=".4" />
        <path fill="#F7DDC4"
            d="m29.7 50.5-1.2-.4c-2.4-.4-4.9-.3-7.3.4-2 .6-5.7 1.9-5.9 4.4-.1 1 .2 1.9.8 2.7.7 1.2 1.9 2 3.3 2.2 1 0 2.1-.3 3-.7 1-.3 1.9-.4 2.8-.8 2-.7 3.7-2 4.8-3.7.4-.6.7-1.4.7-2.2s-.4-1.5-1-1.9" />
        <path fill="#005C9F"
            d="M23.8 54c.4.8 1.2 1.4 2.1 1.5.6.1 1.2.1 1.8-.1l2.1-.5q.75-.15 1.2-.6l.3-.5c.2-.6.2-1.2 0-1.7-.1-.6-.4-1.3-1-1.4h-1c-1 .1-1.9.5-2.9.7a5 5 0 0 0-1.7.6 2 2 0 0 0-1 1.4z" />
        <path fill="#FFF"
            d="m19 19.5-.1.2c-.1.6.1 1.2.5 1.6a5 5 0 0 0 1.8 1l3.5 1h.4l.2-.3c.4-.2.7-.5 1-.9l.3-.6zm2.3 12.2c.1.8.6 1.5 1.4 2l1.2.1h4.3c.3-.2.8-.2 1-.5l.1-.3.2-2zm2.6 22.4c.4.8 1.2 1.3 2 1.4h1.8l2.1-.6c.5 0 .9-.3 1.2-.6l.3-.5c.2-.5.2-1 .1-1.5z"
            opacity=".3" />
    </g>
</svg>
