<svg viewBox="0, 0, 650, 150" fill="rgba(0, 0, 0, 0)" xmlns="http://www.w3.org/2000/svg">
    <!-- Hour 1 segments -->
    <path id="h1-top"
        d="M51.5 46.5c0-10.5 10-18.5 17-19.6 7-1.9 25-1.9 32 0q3 .6 5.3 2L96 44.5Q94.5 43 90.5 43h-13q-6 1-6.3 8.5Z" />
    <path id="h1-top-right" d="M108 30q7.5 4 9.5 12 2 12 0 22-1.5 6-5 9-6-5.5-14.5-7V46Z" />
    <path id="h1-top-left" d="m51.5 48.5 19.7 5V66q-8.7 1-14.7 7-5-4-5-16Z" />
    <path id="h1-between" d="M111 75c-8.5 11-44.5 11-53 0 8.5-11 44.5-11 53 0" />
    <path id="h1-bot"
        d="M51.5 103.5c0 10.5 10 18.5 17 19.6 7 1.9 25 1.9 32 0q3-.6 5.3-2L96 105.5Q94.5 107 90.5 107h-13q-6-1-6.3-8.5Z" />
    <path id="h1-bot-right" d="M108 120q7.5-4 9.5-12 2-12 0-22-1.5-6-5-9-6 5.5-14.5 7V104Z" />
    <path id="h1-bot-left" d="m51.5 101.5 19.7-5V84q-8.7-1-14.7-7-5 4-5 16Z" />

    <!-- Hour 2 segments -->
    <path id="h2-top"
        d="M131.5 46.5c0-10.5 10-18.5 17-19.6 7-1.9 25-1.9 32 0q3 .6 5.3 2L176 44.5Q174.5 43 170.5 43h-13q-6 1-6.3 8.5Z" />
    <path id="h2-top-right" d="M188 30q7.5 4 9.5 12 2 12 0 22-1.5 6-5 9-6-5.5-14.5-7V46Z" />
    <path id="h2-top-left" d="m131.5 48.5 19.7 5V66q-8.7 1-14.7 7-5-4-5-16Z" />
    <path id="h2-between" d="M191 75c-8.5 11-44.5 11-53 0 8.5-11 44.5-11 53 0" />
    <path id="h2-bot"
        d="M131.5 103.5c0 10.5 10 18.5 17 19.6 7 1.9 25 1.9 32 0q3-.6 5.3-2L176 105.5Q174.5 107 170.5 107h-13q-6-1-6.3-8.5Z" />
    <path id="h2-bot-right" d="M188 120q7.5-4 9.5-12 2-12 0-22-1.5-6-5-9-6 5.5-14.5 7V104Z" />
    <path id="h2-bot-left" d="m131.5 101.5 19.7-5V84q-8.7-1-14.7-7-5 4-5 16Z" />

    <!-- Minute 1 segments -->
    <path id="m1-top"
        d="M251.5 46.5c0-10.5 10-18.5 17-19.6 7-1.9 25-1.9 32 0q3 .6 5.3 2L296 44.5Q294.5 43 290.5 43h-13q-6 1-6.3 8.5Z" />
    <path id="m1-top-right" d="M308 30q7.5 4 9.5 12 2 12 0 22-1.5 6-5 9-6-5.5-14.5-7V46Z" />
    <path id="m1-top-left" d="m251.5 48.5 19.7 5V66q-8.7 1-14.7 7-5-4-5-16Z" />
    <path id="m1-between" d="M311 75c-8.5 11-44.5 11-53 0 8.5-11 44.5-11 53 0" />
    <path id="m1-bot"
        d="M251.5 103.5c0 10.5 10 18.5 17 19.6 7 1.9 25 1.9 32 0q3-.6 5.3-2L296 105.5Q294.5 107 290.5 107h-13q-6-1-6.3-8.5Z" />
    <path id="m1-bot-right" d="M308 120q7.5-4 9.5-12 2-12 0-22-1.5-6-5-9-6 5.5-14.5 7V104Z" />
    <path id="m1-bot-left" d="m251.5 101.5 19.7-5V84q-8.7-1-14.7-7-5 4-5 16Z" />

    <!-- Minute 2 segments -->
    <path id="m2-top"
        d="M331.5 46.5c0-10.5 10-18.5 17-19.6 7-1.9 25-1.9 32 0q3 .6 5.3 2L376 44.5Q374.5 43 370.5 43h-13q-6 1-6.3 8.5Z" />
    <path id="m2-top-right" d="M388 30q7.5 4 9.5 12 2 12 0 22-1.5 6-5 9-6-5.5-14.5-7V46Z" />
    <path id="m2-top-left" d="m331.5 48.5 19.7 5V66q-8.7 1-14.7 7-5-4-5-16Z" />
    <path id="m2-between" d="M391 75c-8.5 11-44.5 11-53 0 8.5-11 44.5-11 53 0" />
    <path id="m2-bot"
        d="M331.5 103.5c0 10.5 10 18.5 17 19.6 7 1.9 25 1.9 32 0q3-.6 5.3-2L376 105.5Q374.5 107 370.5 107h-13q-6-1-6.3-8.5Z" />
    <path id="m2-bot-right" d="M388 120q7.5-4 9.5-12 2-12 0-22-1.5-6-5-9-6 5.5-14.5 7V104Z" />
    <path id="m2-bot-left" d="m331.5 101.5 19.7-5V84q-8.7-1-14.7-7-5 4-5 16Z" />

    <!-- Second 1 segments -->
    <path id="s1-top"
        d="M451.5 46.5c0-10.5 10-18.5 17-19.6 7-1.9 25-1.9 32 0q3 .6 5.3 2L496 44.5Q494.5 43 490.5 43h-13q-6 1-6.3 8.5Z" />
    <path id="s1-top-right" d="M508 30q7.5 4 9.5 12 2 12 0 22-1.5 6-5 9-6-5.5-14.5-7V46Z" />
    <path id="s1-top-left" d="m451.5 48.5 19.7 5V66q-8.7 1-14.7 7-5-4-5-16Z" />
    <path id="s1-between" d="M511 75c-8.5 11-44.5 11-53 0 8.5-11 44.5-11 53 0" />
    <path id="s1-bot"
        d="M451.5 103.5c0 10.5 10 18.5 17 19.6 7 1.9 25 1.9 32 0q3-.6 5.3-2L496 105.5Q494.5 107 490.5 107h-13q-6-1-6.3-8.5Z" />
    <path id="s1-bot-right" d="M508 120q7.5-4 9.5-12 2-12 0-22-1.5-6-5-9-6 5.5-14.5 7V104Z" />
    <path id="s1-bot-left" d="m451.5 101.5 19.7-5V84q-8.7-1-14.7-7-5 4-5 16Z" />

    <!-- Second 2 segments -->
    <path id="s2-top"
        d="M531.5 46.5c0-10.5 10-18.5 17-19.6 7-1.9 25-1.9 32 0q3 .6 5.3 2L576 44.5Q574.5 43 570.5 43h-13q-6 1-6.3 8.5Z" />
    <path id="s2-top-right" d="M588 30q7.5 4 9.5 12 2 12 0 22-1.5 6-5 9-6-5.5-14.5-7V46Z" />
    <path id="s2-top-left" d="m531.5 48.5 19.7 5V66q-8.7 1-14.7 7-5-4-5-16Z" />
    <path id="s2-between" d="M591 75c-8.5 11-44.5 11-53 0 8.5-11 44.5-11 53 0" />
    <path id="s2-bot"
        d="M531.5 103.5c0 10.5 10 18.5 17 19.6 7 1.9 25 1.9 32 0q3-.6 5.3-2L576 105.5Q574.5 107 570.5 107h-13q-6-1-6.3-8.5Z" />
    <path id="s2-bot-right" d="M588 120q7.5-4 9.5-12 2-12 0-22-1.5-6-5-9-6 5.5-14.5 7V104Z" />
    <path id="s2-bot-left" d="m531.5 101.5 19.7-5V84q-8.7-1-14.7-7-5 4-5 16Z" />
</svg>