<svg xmlns="http://www.w3.org/2000/svg" viewBox="20 19 465 465">
  <rect x="24" y="20" height="460" width="460" rx="107.3" ry="107.3" fill="#04175B"/>
  <linearGradient id="a" gradientUnits="userSpaceOnUse" x1="154.906" y1="363.604" x2="374.932" y2="123.721" gradientTransform="matrix(1 0 0 -1 0 502)">
    <stop offset=".021" style="stop-color:#c6f0fa"/>
    <stop offset=".156" style="stop-color:#95d9fc"/>
    <stop offset=".351" style="stop-color:#5071fc"/>
    <stop offset=".435" style="stop-color:#506dfa"/>
    <stop offset=".519" style="stop-color:#4e61f2"/>
    <stop offset=".604" style="stop-color:#4c4de6"/>
    <stop offset=".654" style="stop-color:#4a3ddc"/>
    <stop offset="1" style="stop-color:#400a7f"/>
  </linearGradient>
  <path fill="url(#a)" d="M341 369.5c-7.8 0-15.6-3.1-21.4-9.3l-171-184.8c-10.9-11.8-10.2-30.1 1.6-41s30.2-10.1 41.1 1.6l171 184.8c10.9 11.8 10.2 30.1-1.6 41-5.6 5.1-12.6 7.7-19.7 7.7"/>
  <radialGradient id="b" cx="-2.521" cy="497.087" r="8.123" gradientTransform="matrix(36.7423 -38.6735 -65.7524 -62.4691 32904.508 31372.62)" gradientUnits="userSpaceOnUse">
    <stop offset=".091" style="stop-color:#fc8d95"/>
    <stop offset=".14" style="stop-color:#ee747f"/>
    <stop offset=".226" style="stop-color:#f4a58d"/>
    <stop offset=".337" style="stop-color:#ffd7ea"/>
    <stop offset=".367" style="stop-color:#ffd9f8"/>
    <stop offset=".419" style="stop-color:#fee2fa"/>
    <stop offset=".486" style="stop-color:#fdd3fb"/>
    <stop offset=".535" style="stop-color:#fcc2fb"/>
    <stop offset=".674" style="stop-color:#fcbffb"/>
    <stop offset=".781" style="stop-color:#f08bf3"/>
    <stop offset=".877" style="stop-color:#ee70f8"/>
    <stop offset=".919" style="stop-color:#e752f4"/>
  </radialGradient>
  <path fill="url(#b)" d="M170.4 368.7c-16 0-29.1-13-29.1-29v-77.1c0-16 13-29 29.1-29h118.3c13.7 0 24.9-11.2 24.9-24.9s-11.2-24.9-24.9-24.9H170.4c-16 0-29.1-13-29.1-29s13-29 29.1-29h118.3c45.8 0 83 37.2 83 82.9s-37.2 82.9-83 82.9h-89.2v48.1c0 16-13.1 29-29.1 29"/>
</svg>
