<svg xmlns="http://www.w3.org/2000/svg" viewBox="-0.1 0 39 39">
  <rect width="38.51" height="38.51" rx="8.9" ry="8.9"/>
  <path fill="#f05" d="M26.82 10.8c-.92-1-1.52-2.29-1.65-3.72v-.59h-1.26c.32 1.81 1.4 3.37 2.91 4.31M13.66 27.02c-.51-.67-.79-1.49-.79-2.33 0-2.13 1.73-3.85 3.86-3.85q.6 0 1.17.18v-4.66c-.44-.06-.89-.09-1.33-.08v3.63q-.57-.18-1.17-.18a3.86 3.86 0 0 0-3.86 3.85c0 1.5.86 2.81 2.12 3.44"/>
  <path fill="#fff" d="M23.84 14.29c1.79 1.28 3.99 2.03 6.35 2.03v-3.59a6.37 6.37 0 0 1-3.37-1.93 6.37 6.37 0 0 1-2.91-4.31h-3.32v18.2c0 2.12-1.73 3.84-3.86 3.84-1.25 0-2.36-.6-3.07-1.52a3.85 3.85 0 0 1-2.12-3.44c0-2.13 1.73-3.85 3.86-3.85q.615 0 1.17.18v-3.63c-4.57.09-8.25 3.83-8.25 8.42 0 2.29.92 4.37 2.4 5.89 1.34.9 2.96 1.42 4.69 1.42 4.65 0 8.43-3.77 8.43-8.42v-9.3Z"/>
  <path fill="#0ee" d="M30.19 12.73v-.97a6.37 6.37 0 0 1-3.37-.96c.9.98 2.08 1.66 3.37 1.93m-6.28-6.24c-.03-.17-.05-.35-.07-.52v-.59h-4.59v18.2c0 2.12-1.73 3.84-3.86 3.84-.62 0-1.21-.15-1.73-.41a3.86 3.86 0 0 0 6.93-2.32V6.49zm-7.34 9.79v-1.03c-.38-.05-.77-.08-1.16-.08-4.66 0-8.43 3.77-8.43 8.42 0 2.92 1.48 5.49 3.74 7a8.38 8.38 0 0 1-2.4-5.89c0-4.59 3.68-8.33 8.25-8.42"/>
  <path fill="#f05" d="M25.17 15.4c1.79 1.28 3.99 2.03 6.35 2.03v-4.56c-.45 0-.9-.05-1.33-.14v3.59c-2.37 0-4.56-.75-6.35-2.03v9.3c0 4.65-3.77 8.42-8.43 8.42a8.37 8.37 0 0 1-4.69-1.42 8.4 8.4 0 0 0 6.03 2.53c4.66 0 8.43-3.77 8.43-8.42v-9.3Z"/>
</svg>
