<svg xmlns="http://www.w3.org/2000/svg" viewBox="-3 -2 256 256">
  <rect width="250" height="250" fill="#3448C5" rx="59.73"/>
  <path fill="#fff" d="M84.048 116.161c.15 0 .293.06.398.167l18.848 18.865a.56.56 0 0 1-.39.95h-4.818a.577.577 0 0 0-.577.56v42.412a10.18 10.18 0 0 0 2.97 7.159l2.815 2.816a.56.56 0 0 1-.39.95H80.68c-5.621 0-10.179-4.557-10.179-10.179v-43.158a.56.56 0 0 0-.56-.56h-4.75a.56.56 0 0 1-.407-.95l18.865-18.865a.56.56 0 0 1 .399-.167m41.682 10.926c.15 0 .294.06.399.166l18.865 18.797a.56.56 0 0 1-.407.95h-4.818a.577.577 0 0 0-.56.577v31.538a10.18 10.18 0 0 0 2.952 7.159l2.833 2.816a.56.56 0 0 1-.407.95h-22.173c-5.622 0-10.18-4.557-10.18-10.179v-32.25a.577.577 0 0 0-.56-.577h-4.8a.56.56 0 0 1-.39-.95l18.848-18.83a.56.56 0 0 1 .398-.167m41.691 10.808c.147 0 .288.06.39.165l18.865 18.848a.56.56 0 0 1-.39.967h-4.835a.56.56 0 0 0-.56.56v20.68a10.18 10.18 0 0 0 2.97 7.159l2.815 2.816a.56.56 0 0 1-.39.95h-22.24c-5.622 0-10.18-4.557-10.18-10.179v-21.426a.56.56 0 0 0-.56-.56h-4.75a.56.56 0 0 1-.39-.967l18.865-18.848a.54.54 0 0 1 .39-.165M125.35 55.999c29.632.216 55.768 19.458 64.771 47.69 22.007 2.872 38.52 21.543 38.68 43.736 0 18.316-11.455 33.537-29.95 39.874l-.688.23-.849.272v-13.674c11.757-4.954 18.662-14.742 18.662-26.702-.06-16.877-13.426-30.658-30.224-31.3l-.568-.017h-5.089l-1.221-4.852c-5.995-24.745-28.064-42.233-53.524-42.412a54.54 54.54 0 0 0-49.261 30.584l-1.888 3.888-3.563.373a37.815 37.815 0 0 0-16.347 69.46l.587.367v14.42h-.085l-1.273-.576c-20.123-9.252-31.91-30.497-29.11-52.467s19.541-39.58 41.342-43.486a67.22 67.22 0 0 1 59.598-35.408"/>
</svg>
