<svg xmlns="http://www.w3.org/2000/svg" viewBox="0 0 101 101">
  <rect width="100" height="100" rx="100" ry="100" fill="#07f"/>
  <path d="M32.77 37.13a56.6 56.6 0 0 1 10.274 1.1c3.19.605 6.435 1.716 9.713 1.705 2.508 0 4.532-1.76 4.51-3.883s-2.035-3.927-4.587-3.916a14.7 14.7 0 0 0-4.29.715c.363-.253.726-.517 1.1-.748a28.75 28.75 0 0 1 16.61-4.048c6.16.286 12.606 2.2 17.38 6.292a21.89 21.89 0 0 1 7.282 19.602 21.73 21.73 0 0 1-13.387 16.577 26.4 26.4 0 0 1-15.895.572c-6.82-1.738-12.804-5.5-19.228-8.294a51.6 51.6 0 0 0-11.627-2.948h.055a9.9 9.9 0 0 0 4.51-.77c1.914-.913 1.903-3.113.913-4.73-1.177-1.903-3.553-2.684-5.61-3.3a26.8 26.8 0 0 0-11-.528A16.6 16.6 0 0 0 11.98 53.3 6.24 6.24 0 0 0 10 55.72c3.388-9.383 10.12-8.327 14.3-10.89a2.376 2.376 0 0 0-1.727-4.334 8 8 0 0 0-3.212 1.606l-.935.715S21.77 37.13 32.77 37.13" fill="#fff"/>
  <path d="m36.004 54.158.066.066zM71.71 42.355c-4.488 0-6.336 2.827-11.198 5.5-8.415 4.598-13.42 2.64-13.42 2.882s3.41 1.683 11.77 5.742a29.7 29.7 0 0 0 12.903 3.465 8.8 8.8 0 1 0 0-17.6z" fill="#07f"/>
</svg>
