<svg xmlns="http://www.w3.org/2000/svg" viewBox="0 0 1180 1480">
  <style>
    .st2,.st3{fill:#000;stroke:#000;stroke-width:3.7;stroke-linejoin:round}.st3{fill:#fbed24;stroke-width:5.5}
  </style>
  <path d="M10 10v824c0 240 140 380 240 440 140 81 145 85 340 198 195-112 200-116 340-198 115-70 240-205 241-440V10z" style="fill:#ee3c35;stroke:#000;stroke-width:20"/>
  <path d="M467 20v457H20v285h447v627l123 72 124-72V762h447V477H714V20z" style="fill:#fff"/>
  <path class="st2" d="M58 614c11-16 23-51 25-78 3 27 11 62 22 78-6-5-9-9-15-16-7 11-3 17-8 23-5-6 0-12-7-23-5.7 5-10 10-17 16zm145-.5c11-16 23-51 25-78 3 27 11 62 22 78-6-5-9-9-15-16-7 11-3 17-8 23-5-6 0-12-7-23-5.7 5-10 10-17 16zM131 730c11-16 23-51 25-78 3 27 11 62 22 78-6-5-9-9-15-16-7 11-3 17-8 23-5-6 0-12-7-23-5.7 5-10 10-17 16zm145 0c11-16 23-51 25-78 3 27 11 62 22 78-6-5-9-9-15-16-7 11-3 17-8 23-5-6 0-12-7-23-5.7 5-10 10-17 16zm72-116.5c11-16 23-51 25-78 3 27 11 62 22 78-6-5-9-9-15-16-7 11-3 17-8 23-5-6 0-12-7-23-5.7 5-10 10-17 16zm157-447c11-16 23-51 25-78 3 27 11 62 22 78-6-5-9-9-15-16-7 11-3 17-8 23-5-6 0-12-7-23-5.7 5-10 10-17 16z"/>
  <g id="g3239" transform="translate(569 -450)">
    <path id="path3247" class="st2" d="M58 614c11-16 23-51 25-78 3 27 11 62 22 78-6-5-9-9-15-16-7 11-3 17-8 23-5-6 0-12-7-23-5.7 5-10 10-17 16z"/>
  </g>
  <g id="g3249" transform="translate(507.5 -316)">
    <path id="path3257" class="st2" d="M58 614c11-16 23-51 25-78 3 27 11 62 22 78-6-5-9-9-15-16-7 11-3 17-8 23-5-6 0-12-7-23-5.7 5-10 10-17 16z"/>
  </g>
  <g id="g3259" transform="translate(447 -176)">
    <path id="path3267" class="st2" d="M58 614c11-16 23-51 25-78 3 27 11 62 22 78-6-5-9-9-15-16-7 11-3 17-8 23-5-6 0-12-7-23-5.7 5-10 10-17 16z"/>
  </g>
  <g id="g3269" transform="translate(569 -176)">
    <path id="path3277" class="st2" d="M58 614c11-16 23-51 25-78 3 27 11 62 22 78-6-5-9-9-15-16-7 11-3 17-8 23-5-6 0-12-7-23-5.7 5-10 10-17 16z"/>
  </g>
  <g id="g3279" transform="translate(730 -1.5)">
    <path id="path3287" class="st2" d="M58 614c11-16 23-51 25-78 3 27 11 62 22 78-6-5-9-9-15-16-7 11-3 17-8 23-5-6 0-12-7-23-5.7 5-10 10-17 16z"/>
  </g>
  <g id="g3289" transform="translate(874.5 -2)">
    <path id="path3297" class="st2" d="M58 614c11-16 23-51 25-78 3 27 11 62 22 78-6-5-9-9-15-16-7 11-3 17-8 23-5-6 0-12-7-23-5.7 5-10 10-17 16z"/>
  </g>
  <g id="g3299" transform="translate(802.5 115)">
    <path id="path3307" class="st2" d="M58 614c11-16 23-51 25-78 3 27 11 62 22 78-6-5-9-9-15-16-7 11-3 17-8 23-5-6 0-12-7-23-5.7 5-10 10-17 16z"/>
  </g>
  <g id="g3309" transform="translate(947.5 115)">
    <path id="path3317" class="st2" d="M58 614c11-16 23-51 25-78 3 27 11 62 22 78-6-5-9-9-15-16-7 11-3 17-8 23-5-6 0-12-7-23-5.7 5-10 10-17 16z"/>
  </g>
  <g id="g3319" transform="translate(1019.5 -2)">
    <path id="path3327" class="st2" d="M58 614c11-16 23-51 25-78 3 27 11 62 22 78-6-5-9-9-15-16-7 11-3 17-8 23-5-6 0-12-7-23-5.7 5-10 10-17 16z"/>
  </g>
  <g id="g3329" transform="translate(571 719.5)">
    <path id="path3337" class="st2" d="M58 614c11-16 23-51 25-78 3 27 11 62 22 78-6-5-9-9-15-16-7 11-3 17-8 23-5-6 0-12-7-23-5.7 5-10 10-17 16z"/>
  </g>
  <g id="g3339" transform="translate(447.5 719)">
    <path id="path3347" class="st2" d="M58 614c11-16 23-51 25-78 3 27 11 62 22 78-6-5-9-9-15-16-7 11-3 17-8 23-5-6 0-12-7-23-5.7 5-10 10-17 16z"/>
  </g>
  <g id="g3349" transform="translate(508 566)">
    <path id="path3357" class="st2" d="M58 614c11-16 23-51 25-78 3 27 11 62 22 78-6-5-9-9-15-16-7 11-3 17-8 23-5-6 0-12-7-23-5.7 5-10 10-17 16z"/>
  </g>
  <g id="g3359" transform="translate(446.5 449)">
    <path id="path3367" class="st2" d="M58 614c11-16 23-51 25-78 3 27 11 62 22 78-6-5-9-9-15-16-7 11-3 17-8 23-5-6 0-12-7-23-5.7 5-10 10-17 16z"/>
  </g>
  <g id="g3369" transform="translate(570.5 446)">
    <path id="path3377" class="st2" d="M58 614c11-16 23-51 25-78 3 27 11 62 22 78-6-5-9-9-15-16-7 11-3 17-8 23-5-6 0-12-7-23-5.7 5-10 10-17 16z"/>
  </g>
  <g id="g3379" transform="translate(510 313)">
    <path id="path3387" class="st2" d="M58 614c11-16 23-51 25-78 3 27 11 62 22 78-6-5-9-9-15-16-7 11-3 17-8 23-5-6 0-12-7-23-5.7 5-10 10-17 16z"/>
  </g>
  <path id="path3390" class="st3" d="M144 144c-4 2-2.2 12.1-4 15s-3.2 2.1-5 5-.3 15-5 15-2.3-11.3-3-15-14.9-19.4-21-20c-4.2.4-5 2.9-6 5 0 3.2 7 4 9 10-1 9-1 18-1 26-10.5-8.7-36.2-9.8-34 4 1 6 8.3-2 12 0s3.2 12.8 8 15c4 3.1 15.6-1.7 16 4 .2 2.9-9 4-11 6-3.6 3.4-6 8.6-9 9-3 0-7.4-1.9-8 0 0 2 9.5 12.5 16 13 9 1 12.3-11.8 18-8s-8.8 12.4-6 16 5.8-1.2 9 2c1.6 4.1-1.4 16.4 4 18 5.7 2.4 6-11 8-10 .6 2.4-1.1 9 3 10 2.7.4 3-4.1 7-3 .1 3.3.1 18.7 5 19 5 .6 4.1-12 6-12 2.3 2.7.9 16.8 5 17 4.6.7 2.5-8.4 5-10 2.3 3 3.5 12.1 10 11 8-.2.8-14.1 6-15 8 0 10 4 9 8-2.6 13.6-21.3 64-37 70-4 1-23.9-2.5-30 0-6.1 2.6-7.5 9.2-8 12 3.2.7 10.2-1.7 11 4-4 7-14.5 24.8-8 33 6.6 4.8 6.3-10.9 13-8 .1 5.6-2.7 26.9 8 28 2.7-2.1 4.9-24.9 14-24 6.6.3 6 16.5 12 16 4.2.1 6-7 7-11 1.5-5 1.3-12.8-1-17 4.5 1.4 5.3 5 8 3 1.9-3.2.2-8 2-10 2.4-.7 5.4 2 8-1 2-3.7-9.3-6.3-8-12 3.6-2.1 12.7 6.1 15 3 1-2.9-7.5-13.6-4-17 3.4-3.4 7.9 6.6 12 4 1.9-4.1-1.1-15.8 2-21 4 3.7 5.8 7.7 9 7 2.9-3.3-.8-12.1 3-13 3.7-.6 2.4 9.3 8 5 4-3 1.9-7.2 3-11 1.1-5.2 20.2 3.8 32 1 14-1.2 38.4-23.8 42-24 .9 10-12.2 18.1-13 23-1 2-1 3 0 4 2.1 1.3 6.3-2.6 8-3 2 1.9-8.1 6.5-7 11 4.2 4.2 8.3-5.5 10-4-.4 3.8-3.9 3.9-3 8 3.6 0 3.7-3.7 9-2 3.2 3.5 7.7 9.1 11 10-8.2 2.2-14 12.3-18 16-6.3 4.7-15.9 4.4-22 3-5.1-1.9-10.2-4.3-15-4-4 .3-9 2.6-9 6 .5 3.1 8.9 1.2 9 6 .5 3.8-13.1 8.3-10 14 2.6 3.2 11.4-1.8 13 3-.6 4-9.9 13.3-4 20 3.6 3 9.5-7.2 14-7 7.8.6 9.4 9.6 15 8 4.4-1-1.3-14.2 2-15s2.9 3.3 6 2c3.2-1.2-2.7-7.4 0-10 2.3-.1 1.5 12.5 7 10 3.6-4.8.1-9.8-1-14 3.3 3.3 7.2 12.1 12 9 2.5-3.1-3.7-7-3-11 2.5 1.1 8.3 6.4 11 3 1-2.1-2-3.7-1-8 1.6-6.3 6.9.6 9 0 2.4-1 1.7-3.2 5-4 3.3-1 8.2 5.1 12 3 1.4-3.4-1.3-4.1-1-13 2.8-10.2 32.8-24.3 39-26-9.8 6.6-20 14-23 21-4 9-1.7 20-7 24-3 3-5 4-9 2-9.6-2.3-26.8 5.4-25 13 5.3 0 11.7-.7 15 1-1.8 2.5-11.1 18.4-6 21 5 2.3 5.7-8.8 11-8 .9 3.8-.9 17 5 19 6.2.7 5.5-16.6 12-16 5.7.4.3 13.6 6 14 5.9.5 5.1-19.4 9-21 3.5-2.2 3 0 5-1 .8-5-.5-13.9-1-17 4-2.5 4 5.5 8 3 4.5-2.5-.1-15.3 1-17 2.9.8 6 6 10 5 4 0 6.4-.3 7-4 .4-1.9-5.9-3.2-7-9 0-3-1-5 0-7 2.6.2 11.5 6.8 17 6 5.2-1.1 7.2-6.6 6-12-6.2 1.9-13-5.7-12-13 4.2-3.3 8.5 7.8 11 6 2.2-3.5 2.7-8.3-1-15-5.3-7.4-21.9-17.4-31-26 7.3-15.1 20.9-44.9 6-62 9-10.8 18-18 19-31-1.1-8.6-15.6-18.4-19-28-2.6-9.4 9-17 3-19-13-4.5-13.7 4.2-17 10-11.5 0-37.7.3-50 0-16.3.6-31.5-4.6-34-11-2.6-5.6 6-15.4 1-18-3.6-2.6-10.5 3.2-11 6-.3-2.4 2.1-13.3 7-15 2.5.3 8.5 8.6 16 9 9.6.7 21.8-9.5 25-20 6.7-21.2-14.2-28.9-27-28-1.4 6.2 9.2 12.7 8 18-.9 5.3-2.2 8.8-8 10-2.4-3.7 2.8-22.1-12-26-7.1.3-2.9 3.9-5 11-5.6 8-23.1 21.1-23 30-3.3 19.9 24 50 40 57 21.4-4.1 64-14 79-5-9.4 7.5-9.4 11.6-5 19 3.7 5.4 5.4-6.3 10-4 2 4 4.2 12.8-1 16-9 2.3-13.6-7.1-37-7-16.2-.7-29.9 4-48 14-3.8-3.1-10.5-8-41-14-1.8-7 .4-8-2-11-5.8-5.7-5.2 3.3-7-1-1.7-2.1-2.2-10.1-2-14 2.1-1.3 3 1 8-1 9.9-2.4 19.6-28.4 11-37 3.4 5-7 32.2-18 24 1 2.8 13.1-6.4 8-16-3.1-2.7-4.8 3.1-8 2s-3.9.8-3-5c2.8-4.2 15.4-11.4 16-18-2.2-5.3-3.3-2-7-4 .2-3.3-7.4-11.9-13-17 3.9-3.6 6.2-9.5 6.6-16 .5-5.9-.6-11.2-2.6-14-6.1-.5-8.2 10.7-13 10-1.7-2.4 2.4-16.8-3-19-4.7-2-4 2-5 6 1.3-2.4-2.5-23.5-17-19-3.9 3.3 6.8 11.7 2 19-4.5 2.6-4.9-10.4-11-8-8.2.5-4.2 25.1-10 27-7 1.2-5.4-11.4-12-11-7.7 5.1 1.5 22 3 25-2.8 3.5-10.6 5.3-11 20-3 7-9.2 11.5-9 14 1.1 5.3 4.4 7.9 7 9 2.7 1.1 3.4-2.6 5-1 .8 3.1 1.3 6.1-2 8-2 1.7-6.8-3.8-9 0-1.9 5.9 13.9 12.1 12 16-3.5 3.3-7.9 3.2-11 2-3.4-1.4-5.3-9.7-9-10-7.6 19.3 9.6 35 19 34-.8 6.1-2.2 5.1 1 7 2.7 1.7 10-3 10-3 4.2 2.9-3.4 12.3-20 11-18.3 3.9-25-7-24-20-1.7-10.1 10.5-31.4 12-40-.5-9.7-4.3-20.4-10-20z"/>
  <g id="g3866" transform="translate(661 -7)">
    <path id="path3868" class="st3" d="M144 144c-4 2-2.2 12.1-4 15s-3.2 2.1-5 5-.3 15-5 15-2.3-11.3-3-15-14.9-19.4-21-20c-4.2.4-5 2.9-6 5 0 3.2 7 4 9 10-1 9-1 18-1 26-10.5-8.7-36.2-9.8-34 4 1 6 8.3-2 12 0s3.2 12.8 8 15c4 3.1 15.6-1.7 16 4 .2 2.9-9 4-11 6-3.6 3.4-6 8.6-9 9-3 0-7.4-1.9-8 0 0 2 9.5 12.5 16 13 9 1 12.3-11.8 18-8s-8.8 12.4-6 16 5.8-1.2 9 2c1.6 4.1-1.4 16.4 4 18 5.7 2.4 6-11 8-10 .6 2.4-1.1 9 3 10 2.7.4 3-4.1 7-3 .1 3.3.1 18.7 5 19 5 .6 4.1-12 6-12 2.3 2.7.9 16.8 5 17 4.6.7 2.5-8.4 5-10 2.3 3 3.5 12.1 10 11 8-.2.8-14.1 6-15 8 0 10 4 9 8-2.6 13.6-21.3 64-37 70-4 1-23.9-2.5-30 0-6.1 2.6-7.5 9.2-8 12 3.2.7 10.2-1.7 11 4-4 7-14.5 24.8-8 33 6.6 4.8 6.3-10.9 13-8 .1 5.6-2.7 26.9 8 28 2.7-2.1 4.9-24.9 14-24 6.6.3 6 16.5 12 16 4.2.1 6-7 7-11 1.5-5 1.3-12.8-1-17 4.5 1.4 5.3 5 8 3 1.9-3.2.2-8 2-10 2.4-.7 5.4 2 8-1 2-3.7-9.3-6.3-8-12 3.6-2.1 12.7 6.1 15 3 1-2.9-7.5-13.6-4-17 3.4-3.4 7.9 6.6 12 4 1.9-4.1-1.1-15.8 2-21 4 3.7 5.8 7.7 9 7 2.9-3.3-.8-12.1 3-13 3.7-.6 2.4 9.3 8 5 4-3 1.9-7.2 3-11 1.1-5.2 20.2 3.8 32 1 14-1.2 38.4-23.8 42-24 .9 10-12.2 18.1-13 23-1 2-1 3 0 4 2.1 1.3 6.3-2.6 8-3 2 1.9-8.1 6.5-7 11 4.2 4.2 8.3-5.5 10-4-.4 3.8-3.9 3.9-3 8 3.6 0 3.7-3.7 9-2 3.2 3.5 7.7 9.1 11 10-8.2 2.2-14 12.3-18 16-6.3 4.7-15.9 4.4-22 3-5.1-1.9-10.2-4.3-15-4-4 .3-9 2.6-9 6 .5 3.1 8.9 1.2 9 6 .5 3.8-13.1 8.3-10 14 2.6 3.2 11.4-1.8 13 3-.6 4-9.9 13.3-4 20 3.6 3 9.5-7.2 14-7 7.8.6 9.4 9.6 15 8 4.4-1-1.3-14.2 2-15s2.9 3.3 6 2c3.2-1.2-2.7-7.4 0-10 2.3-.1 1.5 12.5 7 10 3.6-4.8.1-9.8-1-14 3.3 3.3 7.2 12.1 12 9 2.5-3.1-3.7-7-3-11 2.5 1.1 8.3 6.4 11 3 1-2.1-2-3.7-1-8 1.6-6.3 6.9.6 9 0 2.4-1 1.7-3.2 5-4 3.3-1 8.2 5.1 12 3 1.4-3.4-1.3-4.1-1-13 2.8-10.2 32.8-24.3 39-26-9.8 6.6-20 14-23 21-4 9-1.7 20-7 24-3 3-5 4-9 2-9.6-2.3-26.8 5.4-25 13 5.3 0 11.7-.7 15 1-1.8 2.5-11.1 18.4-6 21 5 2.3 5.7-8.8 11-8 .9 3.8-.9 17 5 19 6.2.7 5.5-16.6 12-16 5.7.4.3 13.6 6 14 5.9.5 5.1-19.4 9-21 3.5-2.2 3 0 5-1 .8-5-.5-13.9-1-17 4-2.5 4 5.5 8 3 4.5-2.5-.1-15.3 1-17 2.9.8 6 6 10 5 4 0 6.4-.3 7-4 .4-1.9-5.9-3.2-7-9 0-3-1-5 0-7 2.6.2 11.5 6.8 17 6 5.2-1.1 7.2-6.6 6-12-6.2 1.9-13-5.7-12-13 4.2-3.3 8.5 7.8 11 6 2.2-3.5 2.7-8.3-1-15-5.3-7.4-21.9-17.4-31-26 7.3-15.1 20.9-44.9 6-62 9-10.8 18-18 19-31-1.1-8.6-15.6-18.4-19-28-2.6-9.4 9-17 3-19-13-4.5-13.7 4.2-17 10-11.5 0-37.7.3-50 0-16.3.6-31.5-4.6-34-11-2.6-5.6 6-15.4 1-18-3.6-2.6-10.5 3.2-11 6-.3-2.4 2.1-13.3 7-15 2.5.3 8.5 8.6 16 9 9.6.7 21.8-9.5 25-20 6.7-21.2-14.2-28.9-27-28-1.4 6.2 9.2 12.7 8 18-.9 5.3-2.2 8.8-8 10-2.4-3.7 2.8-22.1-12-26-7.1.3-2.9 3.9-5 11-5.6 8-23.1 21.1-23 30-3.3 19.9 24 50 40 57 21.4-4.1 64-14 79-5-9.4 7.5-9.4 11.6-5 19 3.7 5.4 5.4-6.3 10-4 2 4 4.2 12.8-1 16-9 2.3-13.6-7.1-37-7-16.2-.7-29.9 4-48 14-3.8-3.1-10.5-8-41-14-1.8-7 .4-8-2-11-5.8-5.7-5.2 3.3-7-1-1.7-2.1-2.2-10.1-2-14 2.1-1.3 3 1 8-1 9.9-2.4 19.6-28.4 11-37 3.4 5-7 32.2-18 24 1 2.8 13.1-6.4 8-16-3.1-2.7-4.8 3.1-8 2s-3.9.8-3-5c2.8-4.2 15.4-11.4 16-18-2.2-5.3-3.3-2-7-4 .2-3.3-7.4-11.9-13-17 3.9-3.6 6.2-9.5 6.6-16 .5-5.9-.6-11.2-2.6-14-6.1-.5-8.2 10.7-13 10-1.7-2.4 2.4-16.8-3-19-4.7-2-4 2-5 6 1.3-2.4-2.5-23.5-17-19-3.9 3.3 6.8 11.7 2 19-4.5 2.6-4.9-10.4-11-8-8.2.5-4.2 25.1-10 27-7 1.2-5.4-11.4-12-11-7.7 5.1 1.5 22 3 25-2.8 3.5-10.6 5.3-11 20-3 7-9.2 11.5-9 14 1.1 5.3 4.4 7.9 7 9 2.7 1.1 3.4-2.6 5-1 .8 3.1 1.3 6.1-2 8-2 1.7-6.8-3.8-9 0-1.9 5.9 13.9 12.1 12 16-3.5 3.3-7.9 3.2-11 2-3.4-1.4-5.3-9.7-9-10-7.6 19.3 9.6 35 19 34-.8 6.1-2.2 5.1 1 7 2.7 1.7 10-3 10-3 4.2 2.9-3.4 12.3-20 11-18.3 3.9-25-7-24-20-1.7-10.1 10.5-31.4 12-40-.5-9.7-4.3-20.4-10-20z"/>
  </g>
  <g id="g4008" transform="translate(660 715)">
    <path id="path4010" class="st3" d="M144 144c-4 2-2.2 12.1-4 15s-3.2 2.1-5 5-.3 15-5 15-2.3-11.3-3-15-14.9-19.4-21-20c-4.2.4-5 2.9-6 5 0 3.2 7 4 9 10-1 9-1 18-1 26-10.5-8.7-36.2-9.8-34 4 1 6 8.3-2 12 0s3.2 12.8 8 15c4 3.1 15.6-1.7 16 4 .2 2.9-9 4-11 6-3.6 3.4-6 8.6-9 9-3 0-7.4-1.9-8 0 0 2 9.5 12.5 16 13 9 1 12.3-11.8 18-8s-8.8 12.4-6 16 5.8-1.2 9 2c1.6 4.1-1.4 16.4 4 18 5.7 2.4 6-11 8-10 .6 2.4-1.1 9 3 10 2.7.4 3-4.1 7-3 .1 3.3.1 18.7 5 19 5 .6 4.1-12 6-12 2.3 2.7.9 16.8 5 17 4.6.7 2.5-8.4 5-10 2.3 3 3.5 12.1 10 11 8-.2.8-14.1 6-15 8 0 10 4 9 8-2.6 13.6-21.3 64-37 70-4 1-23.9-2.5-30 0-6.1 2.6-7.5 9.2-8 12 3.2.7 10.2-1.7 11 4-4 7-14.5 24.8-8 33 6.6 4.8 6.3-10.9 13-8 .1 5.6-2.7 26.9 8 28 2.7-2.1 4.9-24.9 14-24 6.6.3 6 16.5 12 16 4.2.1 6-7 7-11 1.5-5 1.3-12.8-1-17 4.5 1.4 5.3 5 8 3 1.9-3.2.2-8 2-10 2.4-.7 5.4 2 8-1 2-3.7-9.3-6.3-8-12 3.6-2.1 12.7 6.1 15 3 1-2.9-7.5-13.6-4-17 3.4-3.4 7.9 6.6 12 4 1.9-4.1-1.1-15.8 2-21 4 3.7 5.8 7.7 9 7 2.9-3.3-.8-12.1 3-13 3.7-.6 2.4 9.3 8 5 4-3 1.9-7.2 3-11 1.1-5.2 20.2 3.8 32 1 14-1.2 38.4-23.8 42-24 .9 10-12.2 18.1-13 23-1 2-1 3 0 4 2.1 1.3 6.3-2.6 8-3 2 1.9-8.1 6.5-7 11 4.2 4.2 8.3-5.5 10-4-.4 3.8-3.9 3.9-3 8 3.6 0 3.7-3.7 9-2 3.2 3.5 7.7 9.1 11 10-8.2 2.2-14 12.3-18 16-6.3 4.7-15.9 4.4-22 3-5.1-1.9-10.2-4.3-15-4-4 .3-9 2.6-9 6 .5 3.1 8.9 1.2 9 6 .5 3.8-13.1 8.3-10 14 2.6 3.2 11.4-1.8 13 3-.6 4-9.9 13.3-4 20 3.6 3 9.5-7.2 14-7 7.8.6 9.4 9.6 15 8 4.4-1-1.3-14.2 2-15s2.9 3.3 6 2c3.2-1.2-2.7-7.4 0-10 2.3-.1 1.5 12.5 7 10 3.6-4.8.1-9.8-1-14 3.3 3.3 7.2 12.1 12 9 2.5-3.1-3.7-7-3-11 2.5 1.1 8.3 6.4 11 3 1-2.1-2-3.7-1-8 1.6-6.3 6.9.6 9 0 2.4-1 1.7-3.2 5-4 3.3-1 8.2 5.1 12 3 1.4-3.4-1.3-4.1-1-13 2.8-10.2 32.8-24.3 39-26-9.8 6.6-20 14-23 21-4 9-1.7 20-7 24-3 3-5 4-9 2-9.6-2.3-26.8 5.4-25 13 5.3 0 11.7-.7 15 1-1.8 2.5-11.1 18.4-6 21 5 2.3 5.7-8.8 11-8 .9 3.8-.9 17 5 19 6.2.7 5.5-16.6 12-16 5.7.4.3 13.6 6 14 5.9.5 5.1-19.4 9-21 3.5-2.2 3 0 5-1 .8-5-.5-13.9-1-17 4-2.5 4 5.5 8 3 4.5-2.5-.1-15.3 1-17 2.9.8 6 6 10 5 4 0 6.4-.3 7-4 .4-1.9-5.9-3.2-7-9 0-3-1-5 0-7 2.6.2 11.5 6.8 17 6 5.2-1.1 7.2-6.6 6-12-6.2 1.9-13-5.7-12-13 4.2-3.3 8.5 7.8 11 6 2.2-3.5 2.7-8.3-1-15-5.3-7.4-21.9-17.4-31-26 7.3-15.1 20.9-44.9 6-62 9-10.8 18-18 19-31-1.1-8.6-15.6-18.4-19-28-2.6-9.4 9-17 3-19-13-4.5-13.7 4.2-17 10-11.5 0-37.7.3-50 0-16.3.6-31.5-4.6-34-11-2.6-5.6 6-15.4 1-18-3.6-2.6-10.5 3.2-11 6-.3-2.4 2.1-13.3 7-15 2.5.3 8.5 8.6 16 9 9.6.7 21.8-9.5 25-20 6.7-21.2-14.2-28.9-27-28-1.4 6.2 9.2 12.7 8 18-.9 5.3-2.2 8.8-8 10-2.4-3.7 2.8-22.1-12-26-7.1.3-2.9 3.9-5 11-5.6 8-23.1 21.1-23 30-3.3 19.9 24 50 40 57 21.4-4.1 64-14 79-5-9.4 7.5-9.4 11.6-5 19 3.7 5.4 5.4-6.3 10-4 2 4 4.2 12.8-1 16-9 2.3-13.6-7.1-37-7-16.2-.7-29.9 4-48 14-3.8-3.1-10.5-8-41-14-1.8-7 .4-8-2-11-5.8-5.7-5.2 3.3-7-1-1.7-2.1-2.2-10.1-2-14 2.1-1.3 3 1 8-1 9.9-2.4 19.6-28.4 11-37 3.4 5-7 32.2-18 24 1 2.8 13.1-6.4 8-16-3.1-2.7-4.8 3.1-8 2s-3.9.8-3-5c2.8-4.2 15.4-11.4 16-18-2.2-5.3-3.3-2-7-4 .2-3.3-7.4-11.9-13-17 3.9-3.6 6.2-9.5 6.6-16 .5-5.9-.6-11.2-2.6-14-6.1-.5-8.2 10.7-13 10-1.7-2.4 2.4-16.8-3-19-4.7-2-4 2-5 6 1.3-2.4-2.5-23.5-17-19-3.9 3.3 6.8 11.7 2 19-4.5 2.6-4.9-10.4-11-8-8.2.5-4.2 25.1-10 27-7 1.2-5.4-11.4-12-11-7.7 5.1 1.5 22 3 25-2.8 3.5-10.6 5.3-11 20-3 7-9.2 11.5-9 14 1.1 5.3 4.4 7.9 7 9 2.7 1.1 3.4-2.6 5-1 .8 3.1 1.3 6.1-2 8-2 1.7-6.8-3.8-9 0-1.9 5.9 13.9 12.1 12 16-3.5 3.3-7.9 3.2-11 2-3.4-1.4-5.3-9.7-9-10-7.6 19.3 9.6 35 19 34-.8 6.1-2.2 5.1 1 7 2.7 1.7 10-3 10-3 4.2 2.9-3.4 12.3-20 11-18.3 3.9-25-7-24-20-1.7-10.1 10.5-31.4 12-40-.5-9.7-4.3-20.4-10-20z"/>
  </g>
  <g id="g4150" transform="translate(6 725)">
    <path id="path4152" class="st3" d="M144 144c-4 2-2.2 12.1-4 15s-3.2 2.1-5 5-.3 15-5 15-2.3-11.3-3-15-14.9-19.4-21-20c-4.2.4-5 2.9-6 5 0 3.2 7 4 9 10-1 9-1 18-1 26-10.5-8.7-36.2-9.8-34 4 1 6 8.3-2 12 0s3.2 12.8 8 15c4 3.1 15.6-1.7 16 4 .2 2.9-9 4-11 6-3.6 3.4-6 8.6-9 9-3 0-7.4-1.9-8 0 0 2 9.5 12.5 16 13 9 1 12.3-11.8 18-8s-8.8 12.4-6 16 5.8-1.2 9 2c1.6 4.1-1.4 16.4 4 18 5.7 2.4 6-11 8-10 .6 2.4-1.1 9 3 10 2.7.4 3-4.1 7-3 .1 3.3.1 18.7 5 19 5 .6 4.1-12 6-12 2.3 2.7.9 16.8 5 17 4.6.7 2.5-8.4 5-10 2.3 3 3.5 12.1 10 11 8-.2.8-14.1 6-15 8 0 10 4 9 8-2.6 13.6-21.3 64-37 70-4 1-23.9-2.5-30 0-6.1 2.6-7.5 9.2-8 12 3.2.7 10.2-1.7 11 4-4 7-14.5 24.8-8 33 6.6 4.8 6.3-10.9 13-8 .1 5.6-2.7 26.9 8 28 2.7-2.1 4.9-24.9 14-24 6.6.3 6 16.5 12 16 4.2.1 6-7 7-11 1.5-5 1.3-12.8-1-17 4.5 1.4 5.3 5 8 3 1.9-3.2.2-8 2-10 2.4-.7 5.4 2 8-1 2-3.7-9.3-6.3-8-12 3.6-2.1 12.7 6.1 15 3 1-2.9-7.5-13.6-4-17 3.4-3.4 7.9 6.6 12 4 1.9-4.1-1.1-15.8 2-21 4 3.7 5.8 7.7 9 7 2.9-3.3-.8-12.1 3-13 3.7-.6 2.4 9.3 8 5 4-3 1.9-7.2 3-11 1.1-5.2 20.2 3.8 32 1 14-1.2 38.4-23.8 42-24 .9 10-12.2 18.1-13 23-1 2-1 3 0 4 2.1 1.3 6.3-2.6 8-3 2 1.9-8.1 6.5-7 11 4.2 4.2 8.3-5.5 10-4-.4 3.8-3.9 3.9-3 8 3.6 0 3.7-3.7 9-2 3.2 3.5 7.7 9.1 11 10-8.2 2.2-14 12.3-18 16-6.3 4.7-15.9 4.4-22 3-5.1-1.9-10.2-4.3-15-4-4 .3-9 2.6-9 6 .5 3.1 8.9 1.2 9 6 .5 3.8-13.1 8.3-10 14 2.6 3.2 11.4-1.8 13 3-.6 4-9.9 13.3-4 20 3.6 3 9.5-7.2 14-7 7.8.6 9.4 9.6 15 8 4.4-1-1.3-14.2 2-15s2.9 3.3 6 2c3.2-1.2-2.7-7.4 0-10 2.3-.1 1.5 12.5 7 10 3.6-4.8.1-9.8-1-14 3.3 3.3 7.2 12.1 12 9 2.5-3.1-3.7-7-3-11 2.5 1.1 8.3 6.4 11 3 1-2.1-2-3.7-1-8 1.6-6.3 6.9.6 9 0 2.4-1 1.7-3.2 5-4 3.3-1 8.2 5.1 12 3 1.4-3.4-1.3-4.1-1-13 2.8-10.2 32.8-24.3 39-26-9.8 6.6-20 14-23 21-4 9-1.7 20-7 24-3 3-5 4-9 2-9.6-2.3-26.8 5.4-25 13 5.3 0 11.7-.7 15 1-1.8 2.5-11.1 18.4-6 21 5 2.3 5.7-8.8 11-8 .9 3.8-.9 17 5 19 6.2.7 5.5-16.6 12-16 5.7.4.3 13.6 6 14 5.9.5 5.1-19.4 9-21 3.5-2.2 3 0 5-1 .8-5-.5-13.9-1-17 4-2.5 4 5.5 8 3 4.5-2.5-.1-15.3 1-17 2.9.8 6 6 10 5 4 0 6.4-.3 7-4 .4-1.9-5.9-3.2-7-9 0-3-1-5 0-7 2.6.2 11.5 6.8 17 6 5.2-1.1 7.2-6.6 6-12-6.2 1.9-13-5.7-12-13 4.2-3.3 8.5 7.8 11 6 2.2-3.5 2.7-8.3-1-15-5.3-7.4-21.9-17.4-31-26 7.3-15.1 20.9-44.9 6-62 9-10.8 18-18 19-31-1.1-8.6-15.6-18.4-19-28-2.6-9.4 9-17 3-19-13-4.5-13.7 4.2-17 10-11.5 0-37.7.3-50 0-16.3.6-31.5-4.6-34-11-2.6-5.6 6-15.4 1-18-3.6-2.6-10.5 3.2-11 6-.3-2.4 2.1-13.3 7-15 2.5.3 8.5 8.6 16 9 9.6.7 21.8-9.5 25-20 6.7-21.2-14.2-28.9-27-28-1.4 6.2 9.2 12.7 8 18-.9 5.3-2.2 8.8-8 10-2.4-3.7 2.8-22.1-12-26-7.1.3-2.9 3.9-5 11-5.6 8-23.1 21.1-23 30-3.3 19.9 24 50 40 57 21.4-4.1 64-14 79-5-9.4 7.5-9.4 11.6-5 19 3.7 5.4 5.4-6.3 10-4 2 4 4.2 12.8-1 16-9 2.3-13.6-7.1-37-7-16.2-.7-29.9 4-48 14-3.8-3.1-10.5-8-41-14-1.8-7 .4-8-2-11-5.8-5.7-5.2 3.3-7-1-1.7-2.1-2.2-10.1-2-14 2.1-1.3 3 1 8-1 9.9-2.4 19.6-28.4 11-37 3.4 5-7 32.2-18 24 1 2.8 13.1-6.4 8-16-3.1-2.7-4.8 3.1-8 2s-3.9.8-3-5c2.8-4.2 15.4-11.4 16-18-2.2-5.3-3.3-2-7-4 .2-3.3-7.4-11.9-13-17 3.9-3.6 6.2-9.5 6.6-16 .5-5.9-.6-11.2-2.6-14-6.1-.5-8.2 10.7-13 10-1.7-2.4 2.4-16.8-3-19-4.7-2-4 2-5 6 1.3-2.4-2.5-23.5-17-19-3.9 3.3 6.8 11.7 2 19-4.5 2.6-4.9-10.4-11-8-8.2.5-4.2 25.1-10 27-7 1.2-5.4-11.4-12-11-7.7 5.1 1.5 22 3 25-2.8 3.5-10.6 5.3-11 20-3 7-9.2 11.5-9 14 1.1 5.3 4.4 7.9 7 9 2.7 1.1 3.4-2.6 5-1 .8 3.1 1.3 6.1-2 8-2 1.7-6.8-3.8-9 0-1.9 5.9 13.9 12.1 12 16-3.5 3.3-7.9 3.2-11 2-3.4-1.4-5.3-9.7-9-10-7.6 19.3 9.6 35 19 34-.8 6.1-2.2 5.1 1 7 2.7 1.7 10-3 10-3 4.2 2.9-3.4 12.3-20 11-18.3 3.9-25-7-24-20-1.7-10.1 10.5-31.4 12-40-.5-9.7-4.3-20.4-10-20z"/>
  </g>
  <g id="layer7">
    <path id="path5243" d="M452 734V511h277v223z" style="fill:#ee3c35;stroke:#000;stroke-width:14"/>
  </g>
</svg>
