<svg xmlns="http://www.w3.org/2000/svg" viewBox="4 16 120 120">
  <path fill="#fff" opacity=".9" d="m20 70 91-21v61l-41 20Z"/>
  <path d="M76 94.3a8.78 8.78 0 0 1-8.6 0c-2.7-1.5-4.3-4.3-4.3-7.4 0-3 1.6-5.9 4.3-7.4l52.7-30.4L62.9 16 14.8 43.8C9.4 46.9 6 52.8 6 59.1S9.2 71 14.6 74.2C9.3 77.4 6 83.1 6 89.3c0 6.4 3.3 12.1 8.8 15.3.2.1 48.1 27.9 48.1 27.9 2.8 1.6 5.8 2.4 8.8 2.4s6.1-.8 8.8-2.4l39.6-22.9-9.1-5.2-35 20.2a8.78 8.78 0 0 1-8.6 0c-2.7-1.5-4.3-4.3-4.3-7.4 0-3 1.6-5.9 4.3-7.4l13.1-7.6 39.6-22.9-9.1-5.2zm104.1 26.225v-92.95h58.11v13.65h-40.82v25.48h32.76v13h-32.76v27.17h43.03v13.65zm73.008 0v-92.45l15.73-7v99.45zm29.293 0v-60.99l15.73-7v67.99zm7.67-79.17c-5.2 0-9.36-3.9-9.36-8.97 0-5.2 4.16-9.1 9.36-9.1s9.36 3.9 9.36 9.1c0 5.07-4.16 8.97-9.36 8.97m54.003 80.47c-19.5 0-34.32-12.74-34.32-34.45v-1.04c0-21.58 15.34-35.23 34.32-35.23 15.08 0 29.25 6.76 31.07 25.48h-15.21c-1.3-9.1-7.28-12.87-15.6-12.87-10.79 0-18.46 8.32-18.46 22.36v1.04c0 14.82 7.28 22.62 18.85 22.62 8.32 0 15.47-4.94 16.38-14.56h14.43c-1.17 15.6-13 26.65-31.46 26.65m42.395-1.3v-60.99l15.73-7v67.99zm7.67-79.17c-5.2 0-9.36-3.9-9.36-8.97 0-5.2 4.16-9.1 9.36-9.1s9.36 3.9 9.36 9.1c0 5.07-4.16 8.97-9.36 8.97m48.373 80.34c-13.52 0-20.54-7.28-20.54-20.15v-37.18h-9.1v-11.83h9.1v-14.95l15.73-7v21.95h14.95v11.83h-14.95v35.75c0 5.98 2.86 8.71 7.8 8.71 3.12 0 5.46-.39 7.67-1.3v12.48c-2.47.91-5.85 1.69-10.66 1.69" fill="#2C2C2C"/>
</svg>
