<svg xmlns="http://www.w3.org/2000/svg" viewBox="-14 -1 732 732">
  <path fill="#8B0005" d="M27.64 0h3.72c5.78 1.54 11.77.99 17.68.99 203.3.03 406.61-.01 609.92.02 5.9-.06 11.91.55 17.69-1.01h3.51C694.6 2.7 706.21 15.29 708 29.84v2.4c-.39 1.91-.86 3.82-.99 5.77-.04 206.98.01 413.97-.02 620.96.02 10.02.11 20.05-.07 30.08-.08 2.9.46 5.76 1.08 8.59v1.66c-1.13 11.19-8.3 21.19-17.97 26.69-3.11 1.67-6.63 2.35-9.73 4.01h-3.55c-4.82-1.41-9.85-1.06-14.8-1-205.3-.01-410.6.01-615.9 0-4.95-.06-9.98-.4-14.8 1h-3.24c-3.1-1.36-6.39-2.25-9.44-3.71C8.51 720.96 1.14 710.64 0 699.23v-1.59c1.8-6.74.76-13.74 1-20.61-.01-208.69.02-417.38-.01-626.07-.13-6.53.71-13.18-.99-19.58v-1.49C1.71 15.36 13.3 2.87 27.64 0m28.52 32.3c-15 3.57-26.1 18.32-25.62 33.71-.03 199-.01 398-.01 597.01-.13 8.65 2.8 17.39 8.68 23.82 6.38 7.31 16.04 11.57 25.75 11.38 190.35.01 380.7 0 571.05.01 5.68-.04 11.52.34 17.03-1.36 9.83-2.84 18.12-10.43 21.91-19.93 2.67-6.28 2.61-13.22 2.53-19.91-.01-181.67 0-363.34-.01-545.01-.1-16.32.21-32.64-.15-48.95-.69-17.11-16.12-31.95-33.28-31.77-192.69-.06-385.37.01-578.06-.03-3.3 0-6.61.22-9.82 1.03"/>
  <path fill="#8B0005" d="M64.22 37.31c181.94-.18 363.87-.03 545.81-.08 11.22.05 22.45-.1 33.67.07 10.94.28 21.23 7.51 25.31 17.65 2.7 6 2.3 12.71 2.29 19.13v580.98c-.05 5.69.4 11.54-1.38 17.04-2.58 8.43-9.25 15.44-17.55 18.41-5.87 2.23-12.25 1.71-18.4 1.76-188.99 0-377.98-.01-566.98.01-6.35.13-12.83-1.5-18.01-5.26-8.08-5.48-12.6-15.32-12.29-24.98.01-195.99.01-391.99.01-587.98-.02-6.4-.41-13.08 2.28-19.07 4.05-10.13 14.32-17.38 25.24-17.68m244.14 75.06c-23.72 23.25-46.53 48.18-62.23 77.69-11.09 20.97-17.61 45.36-13.02 69.06 4.79 26 21.16 48.11 39.89 66.03 54 0 108-.01 162 0 16.8-16.13 31.68-35.39 38.04-58.14 5.55-19.06 3.78-39.69-2.94-58.21-8.83-24.57-24.39-46.03-41.24-65.71-22.74-26.11-48.49-49.39-74.86-71.75-15.6 13.23-30.98 26.75-45.64 41.03M272.24 333.6c.01 6.05.01 12.09 0 18.14 54.51-.01 109.01-.02 163.52 0-.03-6.06.05-12.12-.06-18.18-54.48.09-108.98 0-163.46.04m-9.13 43.23c-.02 9.3-.02 18.61 0 27.92-1.95-.01-3.89-.02-5.83-.02.01 1.76.03 3.52.07 5.28 1.91 0 3.83.01 5.75.03-.01 9.29.01 18.58-.01 27.88 7.31-.1 14.63.15 21.94-.16 5.56-.09 11.09-2.64 14.75-6.84 4.37-5.67 6.32-12.9 6.75-19.96.44-8.63-.54-17.79-5.26-25.23-3.02-4.92-8.42-8.25-14.2-8.61-7.97-.59-15.98-.14-23.96-.29m92 .03c-7.86 20.37-15.76 40.72-23.72 61.06 2.81-.02 5.62-.02 8.43-.03 2.22-6.22 4.54-12.39 6.78-18.59 8.72-.03 17.44-.01 26.17-.01q3.675 9.285 7.26 18.6c3.01.01 6.02.01 9.02.02-8.42-20.35-16.88-40.7-25.26-61.07-2.9-.01-5.79-.01-8.68.02m71.5 60.87c2.38.95 5.44.19 8.08.4-.01-20.43 0-40.87 0-61.3-2.7.01-5.41 0-8.1-.03-.16 20.3-.21 40.63.02 60.93m-72.24 2.99c-.01 2.74-.01 5.49-.01 8.24 2.78.09 5.57.11 8.36.1 0-2.79 0-5.57-.01-8.35-2.78.02-5.56.02-8.34.01m-91.4 21.16c-.23 20.75-.03 41.52-.09 62.28 2.5 0 5 0 7.51.01.04-9.87-.01-19.74.03-29.61 10.22.03 20.45 0 30.68.02-.01 9.86 0 19.72 0 29.59 2.5-.01 5.01-.01 7.52 0 0-20.89.02-41.78-.02-62.67-2.51-.02-5.01-.02-7.52.01.03 8.62.01 17.24.02 25.86-10.23.02-20.46-.02-30.69.02-.02-8.63-.01-17.26 0-25.88-2.45.14-5.19-.54-7.44.37m77.29-.55c-9.01 2.21-16.05 9.82-18.69 18.56-2.97 9.68-2.78 20.58 1.69 29.78 2.62 5.72 7.21 10.56 12.96 13.17 10.98 5.2 25.32 1.72 32.57-8.05 6.02-8.21 7.5-19.01 5.99-28.9-1.22-8.03-5.09-16.04-11.9-20.75-6.47-4.61-15-5.77-22.62-3.81m47.5 12.43c-5.6 10.68-5.48 23.79-1.35 34.95 2.45 6.83 7.66 13.05 14.8 15.15 7.79 2.33 16.96 2.03 23.69-2.96 5.47-3.81 8.42-10.14 10.12-16.39q-3.75-1.02-7.47-2.07c-1.08 4.38-2.66 8.92-6.18 11.96-7.47 6.73-20.74 4.74-26-3.81-3.53-5.82-4.29-12.87-4.2-19.54.36-6.55 1.62-13.67 6.36-18.56 4.81-5.08 12.74-6.3 19.23-4.19 5.32 1.8 8.27 7.06 9.91 12.12 2.44-.65 4.9-1.28 7.35-1.92-1.89-6.16-5.52-12.08-11.32-15.21-11.92-6.38-28.61-1.61-34.94 10.47m-44.38 64.22c2.64.09 5.29.12 7.94.11v-8.62l-7.85-.03c-.08 2.84-.1 5.69-.09 8.54m131.8 4.65c.32.77.94 2.32 1.26 3.1 6.05-2.36 12.2-4.43 18.33-6.58 5.69 2.22 11.39 4.43 17.12 6.55.41-1.12.82-2.22 1.24-3.33-6.07-2.13-11.9-4.98-18.03-6.93-6.74 2.07-13.27 4.81-19.92 7.19m-213.11-4.53c-.69.81-1.38 1.63-2.07 2.45 6.4 1.71 12.86 3.2 19.27 4.88.61-.82 1.22-1.63 1.83-2.44-6.34-1.64-12.71-3.18-19.03-4.89m223.45 9.65c-12.64 1.23-25.04 6.67-33.74 16.04-9.78 9.72-14.07 23.72-14.42 37.25-.8 18.02 7.66 36.64 22.81 46.76 13.29 8.97 30.31 11.39 45.87 8.32 12.6-2.63 24.9-9 32.62-19.56 9.01-12.07 12.14-27.82 10.15-42.6-1.76-14.1-8.94-27.81-20.66-36.13-12.17-8.84-27.87-11.69-42.63-10.08m-352.42 1.48c.01 35.46-.02 70.93.01 106.39 4.29-.02 8.58-.01 12.87-.01.22-16.76.02-33.54.1-50.3 17.34.01 34.69 0 52.03 0-.03 16.77-.02 33.54 0 50.31 4.28-.02 8.56-.01 12.85-.02.13-35.44.09-70.89.02-106.34-4.3-.03-8.59-.01-12.88-.03 0 14.57-.01 29.14 0 43.72-17.34.03-34.68.01-52.03.01-.01-14.57.01-29.14 0-43.71-4.33-.01-8.65 0-12.97-.02m131.82-.01c-15.59 35.46-31.14 70.94-46.74 106.4 5.57-.02 11.15-.01 16.72-.01 4.57-10.75 8.99-21.56 13.45-32.36 17.09-.02 34.18-.01 51.27-.01 4.69 10.79 9.53 21.51 14.17 32.32 6.02.11 12.05.01 18.08.06-16.61-35.46-33.21-70.93-49.82-106.39-5.71.02-11.42.02-17.13-.01m74.07.03c0 35.45-.11 70.9.06 106.36 4.12 0 8.24 0 12.36-.01.05-27.88-.15-55.76.11-83.63 6.19 8.79 11.5 18.17 17.33 27.2 11.83 18.8 23.57 37.66 35.42 56.45 4.42-.02 8.85 0 13.28-.04.06-35.44 0-70.89.03-106.33-4.17-.01-8.32 0-12.48-.02-.08 27.88.14 55.76-.11 83.64-17.72-27.69-35.07-55.62-52.47-83.52-4.51-.19-9.02-.1-13.53-.1m222.18-.02c.03 35.46 0 70.93.02 106.39 4.56-.02 9.13-.02 13.7 0 .03-35.46.01-70.93.01-106.39-4.58.02-9.15.02-13.73 0m-72.58 114.19c.01 4.39.04 8.79-.06 13.18 4.35.12 8.71.07 13.07.07-.01-4.42.03-8.84-.06-13.25-4.32-.01-8.63-.01-12.95 0"/>
  <path fill="#8B0005" d="M310.93 113.92C324.87 100.6 339.19 87.65 354 75.3c14.81 12.38 29.17 25.3 43.09 38.67 1.76 1.14 1.12 3.3 1.04 5.03-1.28 12.92-.53 26.06 2.62 38.67-2.66-1.72-5.5-3.16-8.5-4.16-4.82-20.8-20.86-36.72-38.25-47.94-17.39 11.23-33.44 27.14-38.25 47.94-3.02 1-5.83 2.51-8.41 4.35 3.06-13.24 3.69-26.99 1.9-40.46-.5-1.5.74-2.54 1.69-3.48"/>
  <path fill="#8B0005" d="M325.11 138.06c6.94-11.97 17.61-21.24 28.89-29 11.07 7.65 21.59 16.68 28.52 28.38 3.51 5.74 5.74 12.14 7.28 18.67 5.96 1.25 12.08 4.9 14.04 10.98 1.88 5.12 4.43 9.96 7.1 14.71-1.62-.63-3.14-1.55-4.87-1.79-2.73-.2-4.81 1.78-6.86 3.24.59-10.17-6.73-18.43-14.62-23.78-2.43-17.56-16.1-30.34-29.05-41.06-1.83-2.06-3.72.69-5.25 1.74-12.1 10.38-24.66 22.71-26.88 39.31-7.89 5.36-15.21 13.62-14.63 23.79-2.03-1.44-4.08-3.41-6.77-3.24-1.75.23-3.3 1.11-4.9 1.78 2.39-4.36 4.79-8.75 6.56-13.41 2.12-6.37 8.03-11.04 14.54-12.29 1.47-6.29 3.6-12.46 6.9-18.03m-26.39-11.92c2.52-2.47 4.85-5.15 7.66-7.31 2.63 21.06-.59 43.37-12.01 61.54-9.96 16.26-25.36 28.39-41.94 37.37.17-2.72.27-5.43.29-8.15 11.18-5.86 22.65-12.08 31.03-21.76 4.63-5.27 7.5-12.49 5.49-19.49 9.89-11.46 11.54-27.74 9.48-42.2m102.55-7.99c2.7 2.62 5.31 5.32 8 7.95-2.07 14.52-.35 30.78 9.5 42.33-2.03 6.95.87 14.16 5.47 19.39 8.37 9.71 19.87 15.9 31.05 21.79 0 2.71.1 5.42.27 8.13-19.19-10.29-36.76-25.18-46.18-45.19-8.05-16.82-10.11-36-8.11-54.4"/>
  <path fill="#8B0005" d="M333.25 142.32c5.64-8.25 13.13-15.01 20.75-21.38 8.13 6.82 16.19 14.06 21.86 23.13 3.25 5.15 5.1 11.04 5.89 17.05 6.31 4.28 12.79 9.9 14.14 17.83.34 3.33.75 7.49-2 9.97-5.01 4.83-12.79 5.33-19.2 3.47-5.31-1.67-10.68-4.48-13.69-9.36-2.29-3.45-3.82-8.01-2.11-12.02 1.24-3.26 4.64-5.09 7.95-5.52 6.09-1.14 12.02 2.32 16.17 6.47 2.88 2.87 2.8 10.3-2.13 10.62-3.01.49-6.56-.68-7.9-3.61-1.09-1.98-.67-4.32-.65-6.47-1-.17-1.99-.33-2.98-.49-.1 2.87-.46 5.96 1.09 8.54 2.84 5.35 10.61 6.69 15.39 3.23 2.2-3.63 2.99-8.52.54-12.24-2.64-4.38-7.65-6.16-11.76-8.74-3.06-13.22-10.25-25.53-20.61-34.34-10.34 8.81-17.53 21.07-20.59 34.27-4.04 2.68-9.14 4.38-11.77 8.8-2.44 3.7-1.73 8.65.58 12.23 4.72 3.53 12.53 2.1 15.34-3.22 1.53-2.57 1.18-5.65 1.09-8.51-.99.15-1.99.29-2.97.44.05 2.4.44 5.06-1.03 7.16-2.14 3.29-6.95 3.83-10.24 2.07-1.67-2.98-1.96-7.13.57-9.73 4.73-4.92 12.14-8.47 18.93-5.78 4.8 1.47 7.05 7.19 5.46 11.77-3.19 10.88-15.77 16.6-26.44 15.17-5.1-.8-11.42-4.09-11.04-10.09-.71-9.66 6.94-17.06 14.37-21.93.8-6.71 3.16-13.21 6.99-18.79m-49.22-.33c3.93-4.35 7.76-8.8 12.01-12.84 1.45 13.49-.6 28.48-10.22 38.75 2.87 6.97-.66 14.37-5.53 19.42-7.86 8.17-17.84 13.91-27.86 19.01-.5-2.15-1.03-4.29-1.6-6.42 12.37-5.41 23.47-14.72 28.86-27.32 4.33-9.56 5.05-20.25 4.34-30.6m127.93-12.84c4.26 4.05 8.1 8.52 12.05 12.88-1.09 12.79.56 26.31 7.77 37.23 5.98 9.4 15.32 16.16 25.38 20.65q-.855 3.195-1.59 6.42c-10.01-5.1-20.01-10.83-27.86-19.01-4.87-5.03-8.43-12.45-5.52-19.4-9.63-10.27-11.68-25.27-10.23-38.77"/>
  <path fill="#8B0005" d="M336.64 162.24c2.72-11.42 8.94-21.82 17.36-29.95 8.42 8.13 14.64 18.52 17.35 29.94-5.05-.15-10.79.92-13.9 5.31-3.97 5.26-2.26 12.67 1.4 17.61 8.01 10.95 25.43 15.29 36.62 6.63-.05 2.03-.06 4.08-.06 6.12-6.65 4.1-14.41 7.23-22.36 6.29-6.35-.68-12.13-4.36-15.85-9.47-1.03-1.19-1.76-2.76-3.24-3.45-1.61.96-2.47 2.71-3.66 4.09-3.91 5.07-9.92 8.52-16.35 8.94-7.63.56-14.98-2.46-21.36-6.4-.01-2.05-.03-4.1-.07-6.14 10.43 8.17 26.19 4.74 34.87-4.37 4.41-4.89 7.41-12.49 3.91-18.69-2.81-5.2-9.17-6.72-14.66-6.46m-64.51-6.08c2.9-3.6 5.79-7.24 8.99-10.59.89 12.48-2.09 25.57-9.95 35.51-5.58 7.15-13.26 12.6-21.66 15.95-.66-1.07-1.32-2.14-1.98-3.2.8-1.92 1.96-3.69 4.06-4.33 9.81-4.36 17.12-13.82 18.57-24.49.71-2.95-.28-6.46 1.97-8.85m154.8-10.52c3.18 3.31 6.01 6.91 8.9 10.47 2.27 2.38 1.29 5.9 2 8.86 1.43 10.69 8.75 20.16 18.57 24.53 2.17.62 3.26 2.53 4.17 4.44-.87.94-1.39 2.29-2.51 2.95-11.06-4.56-20.95-12.73-26.26-23.6-4.15-8.53-5.61-18.23-4.87-27.65"/>
  <path fill="#8B0005" d="M252.14 185.89c4.07-8.36 9.58-15.97 15.25-23.31-.62 9.75-6.54 18.86-15.25 23.31m188.48-23.28c5.69 7.32 11.14 14.95 15.25 23.28-8.71-4.43-14.64-13.54-15.25-23.28m-145.9 27.07c1.84-2.72 4.01-5.73 7.33-6.68 4.02.31 6.15 4.55 7.05 8.02 1.48 5.27-.53 10.64-3.16 15.19 4.65.65 5.99 5.78 5.98 9.76.14 4.1-1.66 8.88-5.82 10.34-7.39.78-12.04-6.92-12.56-13.4-.71-3.23.29-8.67 4.58-8.25 4.84 2.14 3.34 8.58 1.5 12.36.63.35 1.9 1.05 2.54 1.39 2.01-3.89 3.29-8.7 1.16-12.82-1.63-3.69-7.06-5.5-10.02-2.28-5.13 5.1-2.69 13.26.15 18.92-6.33 5.48-11.48 13.04-11.49 21.71-.24 18.3 18.06 33.7 36 31.47 5.69-.83 11.72-2.28 16-6.38 7.76-7.27 10.85-19.28 7.33-29.35-2.43-7.05-9.08-12.18-16.41-13.19-11.53-.45-22.34 9-23.67 20.42-.48 3.98.19 8.7 3.73 11.16 5.88 4.79 15.01 3.1 20.12-2.04 4.32-4.29 3.41-13.29-2.65-15.52-3.96-1.47-7.69 1.38-10.27 4.09.54.48 1.61 1.44 2.15 1.92 2.12-1.9 4.97-4.58 7.99-2.82 3.66 2.78 3.08 9.32-.9 11.6-4.89 3.57-13.49 3.91-16.63-2.06-3.41-11.96 8.17-24.6 20.25-23.64 6.53.91 12.25 5.92 13.88 12.34 3.12 11.35-2.63 26.04-14.78 29.09-12.47 4.41-27.15-.92-34.37-11.86-4.84-6.93-6.3-16.39-2.68-24.17 1.72-4.07 4.86-7.24 8.01-10.23 3.62 3.28 9.29 6.5 13.96 3.39 7.84-5.09 7.74-17.61 1.26-23.79l1.4-3.44c7.63 4.32 16.47 7.8 25.37 5.99 6.95-1.19 12.67-5.8 16.97-11.16 4.25 5.42 10.02 9.98 16.96 11.17 8.94 1.81 17.77-1.74 25.44-6.03.2 1.51 2.05 3.34.32 4.59-5.82 6.65-5.04 19.35 3.51 23.36 4.61 1.87 9.28-1.17 12.71-4.05 5.87 5.01 10.43 12.22 9.99 20.19-.35 15.97-16.24 29.02-31.91 27.47-5.72-.69-11.92-2.13-15.97-6.55-6.08-6.47-8.33-16.35-5.69-24.82 2.28-7.57 10.74-13.15 18.61-11.1 8.34 1.79 15.17 9.32 15.85 17.87.15 2.67 0 5.86-2.29 7.66-5.13 4.24-13.58 2.46-17.38-2.71-1.53-3-1.23-7.9 2.22-9.43 2.94-1.07 5.31 1.43 7.32 3.16l2.13-2.01c-2.65-2.69-6.41-5.55-10.39-3.97-5.3 2.04-6.47 9.3-3.8 13.83 3.15 4.57 9.03 6.86 14.48 6.46 5.12-.4 10.41-4.23 10.66-9.7 1.4-13.04-10.74-25.24-23.68-24.66-6.79.98-13.08 5.4-15.81 11.75-5.97 13.6 1.56 32.65 16.71 35.96 13.5 4.39 28.97-1.76 36.74-13.39 5.19-7.44 6.99-17.49 3.38-25.97-1.92-5.04-5.73-8.98-9.58-12.6 2.29-4.63 4.05-10.1 2.55-15.23-1.13-3.87-5.81-7.08-9.57-4.47-5.36 3.31-4.31 10.63-2.09 15.56.92-.29 3.13-.41 2.37-1.95-.62-2.92-2-6.03-.58-8.93.66-1.86 2.84-3.29 4.76-2.29 2.04 1.24 2.76 3.81 2.63 6.07-.22 5-1.95 10.34-6.06 13.49-2.65 1.93-6.83 2.91-9.31.21-4.03-4.12-4.02-11.01-1.39-15.87.72-1.71 2.74-1.93 4.24-2.64-3.4-5.33-5.12-12.26-2.14-18.17 1.21-2.51 3.65-5.68 6.81-4.79 4.17 2.1 6.62 6.38 8.74 10.35 3.8 7.51 6.24 15.74 7.01 24.14 16.99 10.38 21.56 35.69 9.83 51.6-5.06 6.21-12.06 10.89-19.74 13.18-12.51 3.59-26.46 2.04-37.83-4.3-7.26-4.12-13.66-10.86-15.08-19.34-1.9-9.51-1.38-20.37 4.92-28.22 6.5-8.04 17.27-11.14 27.26-11.26.14-.73.4-2.21.53-2.95-9.8-.14-20.09 2.69-27.4 9.46-5.86 5.35-8.93 13.25-9.22 21.09-.32 8.55.91 17.78 6.58 24.56 10.11 12.35 27.21 17.21 42.68 15.54 12.54-1.23 24.17-8.16 31.6-18.28.04.74.14 2.21.18 2.95-7.29 9.92-17.39 18.06-29.24 21.76-11.34 3.58-24.3 2.81-34.61-3.36-9.09-5.31-15.52-14.73-17.55-25.02-.95-.02-1.9-.04-2.84-.05-2.04 10.31-8.47 19.76-17.59 25.08-10.54 6.3-23.82 6.96-35.33 3.11-11.53-3.79-21.32-11.79-28.48-21.47.04-.75.11-2.25.15-3.01 6.29 8.4 15.34 14.86 25.64 17.23 14.45 3.41 30.54.54 42.5-8.42 5.58-4.4 10.19-10.39 11.65-17.47 2.19-10.45 1.67-22.4-5.23-31.08-7.03-9.05-18.91-12.47-29.94-12.81.01 1.04.02 2.09.04 3.14 10.03.1 20.84 3.18 27.36 11.26 6.33 7.85 6.84 18.74 4.93 28.26-1.39 8.23-7.51 14.83-14.49 18.96-17.42 10.16-42.1 8.85-56.28-6.34-14.04-15.45-9.86-42.97 7.96-53.8.93-9.87 4.04-19.58 9.24-28.04"/>
  <path fill="#8B0005" d="M252.76 220.84a126.9 126.9 0 0 0 36.23-27.72c-2.79 7.51-5.65 15.08-6.48 23.12-11.93 7.97-17.93 23.13-16.07 37.18-.41-.16-1.25-.47-1.67-.63.31-3.05-.88-5.92-1.88-8.73-2.76-7.39-7.29-14.09-13.05-19.47.67-1.46 1.27-3.14 2.92-3.75m166.26-27.73c10.24 11.34 22.55 20.74 36.15 27.69 1.68.61 2.31 2.31 2.98 3.8-10.52 9.74-16.75 24.06-16.11 38.44.35 12.25 5.61 24.09 14.01 32.95-.81 1.22-1.64 2.42-2.45 3.63-11.11-11.12-16.99-28.29-12.43-43.66 2.92-14.75-3.03-31.27-15.7-39.73-.8-8.05-3.7-15.6-6.45-23.12m-173.55 5.09c.32-.03.96-.08 1.28-.11 3.54 7.51 3.92 16.42 1.07 24.22-3.1-2-6.02-4.26-9.13-6.25 1.84-6.1 4.04-12.11 6.78-17.86m214.72 24.12c-2.99-8.17-2.53-17.67 1.72-25.31 3.07 6.1 5.42 12.53 7.42 19.06-3.13 1.97-6.06 4.22-9.14 6.25"/>
  <path fill="#8B0005" d="M235.56 230.17c.62-3.73 1.39-7.44 2.27-11.12 10.98 6.69 20.06 17.1 23.43 29.69 4.41 15.47.14 33.09-11.07 44.69-1.44-2.31-2.8-4.66-4.05-7.07 10.24-13.59 10.61-34.03-.07-47.47-2.87-3.59-6.49-6.5-10.51-8.72m210.63 20.74c2.9-13.49 12.34-24.8 23.97-31.86.89 3.68 1.66 7.39 2.27 11.12-6.59 3.59-12.07 9.28-15.03 16.2-5.78 12.86-4 28.69 4.45 39.97a90 90 0 0 1-4.09 7.12c-10.57-11.14-15.08-27.59-11.57-42.55"/>
  <path fill="#8B0005" d="M235.23 233.39c14.38 8.1 19.11 27.44 13.33 42.28-.99 2.67-2.37 5.17-3.78 7.65-8.36-15.03-11.46-32.88-9.55-49.93m228.29 49.93c-11.15-15.29-7.78-40.3 9.25-49.92 2.07 17.08-1.49 34.62-9.25 49.92m-197.75-29.26c2.73 4.64 2.85 10.53 2.49 15.82-.9 11.15-5.97 21.81-13.82 29.74-.84-1.21-1.67-2.41-2.5-3.62 6.51-6.94 11.25-15.57 13.07-24.94 1.25-5.59.99-11.33.76-17m74.45 36.15c6.29-4.65 10.77-11.32 13.78-18.47 3.9 9.67 11.05 18.19 20.6 22.65 11.1 5.44 24.38 5.53 35.89 1.29 10.68-3.82 19.92-11.06 26.94-19.88 2.19 9.89 7.24 19 14.26 26.27-5.25 7.21-11.42 13.68-17.7 20-53.31.06-106.62.02-159.94.02-6.31-6.3-12.48-12.8-17.74-20.02 7-7.27 12.08-16.37 14.24-26.26 8.02 10.02 18.92 18.03 31.45 21.26 12.89 3.52 27.51 1.36 38.22-6.86m-70.43 93.53c6.29.16 12.68-.54 18.88.82 5.97 1.62 9.25 7.74 10.28 13.43 1.08 7 1.08 14.29-.77 21.16-1.27 4.7-4.24 9.38-9.18 10.77-6.24 1.76-12.82.67-19.21.97 0-6.96-.01-13.91 0-20.87 4.87-.01 9.73 0 14.6-.01 0-1.76 0-3.52.01-5.27-4.87.01-9.74.01-14.6.02-.02-7.01-.02-14.02-.01-21.02m89.45-.6c3.53 9.98 7.31 19.87 11.06 29.77-7.12.01-14.24.02-21.35 0 3.48-9.91 7.97-19.49 10.29-29.77m-15.77 84.55c6.72-1.41 14.13.93 18.49 6.3 4.76 5.83 5.9 13.7 5.63 21.01-.23 6.42-1.93 13.23-6.63 17.88-6.41 6.85-18.16 7.41-25.34 1.48-4.95-3.94-7.57-10.15-8.11-16.34-.46-5.7-.2-11.56 1.47-17.06 1.89-6.64 7.73-11.94 14.49-13.27m143.07 92c11.59-1.75 24.15.89 33.25 8.52 13.68 11.45 15.89 31.45 12.35 47.95-2.02 8.83-7.07 17.14-14.67 22.24-9.68 6.98-22.41 8.48-33.91 6.21-11.9-2.36-22.5-10.77-27.13-22.03-3.62-8.72-3.8-18.41-2.87-27.67.97-8.55 3.56-17.37 9.64-23.73 6.28-6.19 14.58-10.31 23.34-11.49m-217.85 15.07c1.95-4.59 2.62-9.61 4.64-14.16 6.33 17.43 14.17 34.26 21.33 51.36-13.9.3-27.81.07-41.71.12 5.12-12.49 10.8-24.75 15.74-37.32"/>
  <path d="M31.36 0h645.29c-5.78 1.56-11.79.95-17.69 1.01C455.65.98 252.34 1.02 49.04.99c-5.91 0-11.9.55-17.68-.99M0 31.38c1.7 6.4.86 13.05.99 19.58.03 208.69 0 417.38.01 626.07-.24 6.87.8 13.87-1 20.61zm707.01 6.63c.13-1.95.6-3.86.99-5.77v665.4c-.62-2.83-1.16-5.69-1.08-8.59.18-10.03.09-20.06.07-30.08.03-206.99-.02-413.98.02-620.96" fill="#7C1716"/>
  <path fill="#FFF012" d="M56.16 32.3c3.21-.81 6.52-1.03 9.82-1.03 192.69.04 385.37-.03 578.06.03 17.16-.18 32.59 14.66 33.28 31.77.36 16.31.05 32.63.15 48.95.01 181.67 0 363.34.01 545.01.08 6.69.14 13.63-2.53 19.91-3.79 9.5-12.08 17.09-21.91 19.93-5.51 1.7-11.35 1.32-17.03 1.36-190.35-.01-380.7 0-571.05-.01-9.71.19-19.37-4.07-25.75-11.38-5.88-6.43-8.81-15.17-8.68-23.82 0-199.01-.02-398.01.01-597.01-.48-15.39 10.62-30.14 25.62-33.71m8.06 5.01c-10.92.3-21.19 7.55-25.24 17.68-2.69 5.99-2.3 12.67-2.28 19.07 0 195.99 0 391.99-.01 587.98-.31 9.66 4.21 19.5 12.29 24.98 5.18 3.76 11.66 5.39 18.01 5.26 189-.02 377.99-.01 566.98-.01 6.15-.05 12.53.47 18.4-1.76 8.3-2.97 14.97-9.98 17.55-18.41 1.78-5.5 1.33-11.35 1.38-17.04V74.08c.01-6.42.41-13.13-2.29-19.13-4.08-10.14-14.37-17.37-25.31-17.65-11.22-.17-22.45-.02-33.67-.07-181.94.05-363.87-.1-545.81.08"/>
  <path fill="#FFF012" d="M272.24 333.6c54.48-.04 108.98.05 163.46-.04.11 6.06.03 12.12.06 18.18-54.51-.02-109.01-.01-163.52 0 .01-6.05.01-12.09 0-18.14m-9.13 43.23c7.98.15 15.99-.3 23.96.29 5.78.36 11.18 3.69 14.2 8.61 4.72 7.44 5.7 16.6 5.26 25.23-.43 7.06-2.38 14.29-6.75 19.96-3.66 4.2-9.19 6.75-14.75 6.84-7.31.31-14.63.06-21.94.16.02-9.3 0-18.59.01-27.88-1.92-.02-3.84-.03-5.75-.03-.04-1.76-.06-3.52-.07-5.28 1.94 0 3.88.01 5.83.02-.02-9.31-.02-18.62 0-27.92m6.68 6.91c-.01 7-.01 14.01.01 21.02 4.86-.01 9.73-.01 14.6-.02-.01 1.75-.01 3.51-.01 5.27-4.87.01-9.73 0-14.6.01-.01 6.96 0 13.91 0 20.87 6.39-.3 12.97.79 19.21-.97 4.94-1.39 7.91-6.07 9.18-10.77 1.85-6.87 1.85-14.16.77-21.16-1.03-5.69-4.31-11.81-10.28-13.43-6.2-1.36-12.59-.66-18.88-.82m85.32-6.88c2.89-.03 5.78-.03 8.68-.02 8.38 20.37 16.84 40.72 25.26 61.07-3-.01-6.01-.01-9.02-.02q-3.585-9.315-7.26-18.6c-8.73 0-17.45-.02-26.17.01-2.24 6.2-4.56 12.37-6.78 18.59-2.81.01-5.62.01-8.43.03 7.96-20.34 15.86-40.69 23.72-61.06m4.13 6.28c-2.32 10.28-6.81 19.86-10.29 29.77 7.11.02 14.23.01 21.35 0-3.75-9.9-7.53-19.79-11.06-29.77m67.37 54.59c-.23-20.3-.18-40.63-.02-60.93 2.69.03 5.4.04 8.1.03 0 20.43-.01 40.87 0 61.3-2.64-.21-5.7.55-8.08-.4m-72.24 2.99c2.78.01 5.56.01 8.34-.01.01 2.78.01 5.56.01 8.35-2.79.01-5.58-.01-8.36-.1 0-2.75 0-5.5.01-8.24m-91.4 21.16c2.25-.91 4.99-.23 7.44-.37-.01 8.62-.02 17.25 0 25.88 10.23-.04 20.46 0 30.69-.02-.01-8.62.01-17.24-.02-25.86 2.51-.03 5.01-.03 7.52-.01.04 20.89.02 41.78.02 62.67-2.51-.01-5.02-.01-7.52 0 0-9.87-.01-19.73 0-29.59-10.23-.02-20.46.01-30.68-.02-.04 9.87.01 19.74-.03 29.61-2.51-.01-5.01-.01-7.51-.01.06-20.76-.14-41.53.09-62.28m77.29-.55c7.62-1.96 16.15-.8 22.62 3.81 6.81 4.71 10.68 12.72 11.9 20.75 1.51 9.89.03 20.69-5.99 28.9-7.25 9.77-21.59 13.25-32.57 8.05-5.75-2.61-10.34-7.45-12.96-13.17-4.47-9.2-4.66-20.1-1.69-29.78 2.64-8.74 9.68-16.35 18.69-18.56m3.21 6.36c-6.76 1.33-12.6 6.63-14.49 13.27-1.67 5.5-1.93 11.36-1.47 17.06.54 6.19 3.16 12.4 8.11 16.34 7.18 5.93 18.93 5.37 25.34-1.48 4.7-4.65 6.4-11.46 6.63-17.88.27-7.31-.87-15.18-5.63-21.01-4.36-5.37-11.77-7.71-18.49-6.3m44.29 6.07c6.33-12.08 23.02-16.85 34.94-10.47 5.8 3.13 9.43 9.05 11.32 15.21-2.45.64-4.91 1.27-7.35 1.92-1.64-5.06-4.59-10.32-9.91-12.12-6.49-2.11-14.42-.89-19.23 4.19-4.74 4.89-6 12.01-6.36 18.56-.09 6.67.67 13.72 4.2 19.54 5.26 8.55 18.53 10.54 26 3.81 3.52-3.04 5.1-7.58 6.18-11.96q3.72 1.05 7.47 2.07c-1.7 6.25-4.65 12.58-10.12 16.39-6.73 4.99-15.9 5.29-23.69 2.96-7.14-2.1-12.35-8.32-14.8-15.15-4.13-11.16-4.25-24.27 1.35-34.95m-44.38 64.22c-.01-2.85.01-5.7.09-8.54l7.85.03v8.62c-2.65.01-5.3-.02-7.94-.11m142.14 9.77c14.76-1.61 30.46 1.24 42.63 10.08 11.72 8.32 18.9 22.03 20.66 36.13 1.99 14.78-1.14 30.53-10.15 42.6-7.72 10.56-20.02 16.93-32.62 19.56-15.56 3.07-32.58.65-45.87-8.32-15.15-10.12-23.61-28.74-22.81-46.76.35-13.53 4.64-27.53 14.42-37.25 8.7-9.37 21.1-14.81 33.74-16.04m1.02 11.94c-8.76 1.18-17.06 5.3-23.34 11.49-6.08 6.36-8.67 15.18-9.64 23.73-.93 9.26-.75 18.95 2.87 27.67 4.63 11.26 15.23 19.67 27.13 22.03 11.5 2.27 24.23.77 33.91-6.21 7.6-5.1 12.65-13.41 14.67-22.24 3.54-16.5 1.33-36.5-12.35-47.95-9.1-7.63-21.66-10.27-33.25-8.52M133.1 549.23c4.32.02 8.64.01 12.97.02.01 14.57-.01 29.14 0 43.71 17.35 0 34.69.02 52.03-.01-.01-14.58 0-29.15 0-43.72 4.29.02 8.58 0 12.88.03.07 35.45.11 70.9-.02 106.34-4.29.01-8.57 0-12.85.02-.02-16.77-.03-33.54 0-50.31-17.34 0-34.69.01-52.03 0-.08 16.76.12 33.54-.1 50.3-4.29 0-8.58-.01-12.87.01-.03-35.46 0-70.93-.01-106.39m131.82-.01c5.71.03 11.42.03 17.13.01 16.61 35.46 33.21 70.93 49.82 106.39-6.03-.05-12.06.05-18.08-.06-4.64-10.81-9.48-21.53-14.17-32.32-17.09 0-34.18-.01-51.27.01-4.46 10.8-8.88 21.61-13.45 32.36-5.57 0-11.15-.01-16.72.01 15.6-35.46 31.15-70.94 46.74-106.4m3.77 25.54c-4.94 12.57-10.62 24.83-15.74 37.32 13.9-.05 27.81.18 41.71-.12-7.16-17.1-15-33.93-21.33-51.36-2.02 4.55-2.69 9.57-4.64 14.16m70.3-25.51c4.51 0 9.02-.09 13.53.1 17.4 27.9 34.75 55.83 52.47 83.52.25-27.88.03-55.76.11-83.64 4.16.02 8.31.01 12.48.02-.03 35.44.03 70.89-.03 106.33-4.43.04-8.86.02-13.28.04-11.85-18.79-23.59-37.65-35.42-56.45-5.83-9.03-11.14-18.41-17.33-27.2-.26 27.87-.06 55.75-.11 83.63-4.12.01-8.24.01-12.36.01-.17-35.46-.06-70.91-.06-106.36m222.18-.02c4.58.02 9.15.02 13.73 0 0 35.46.02 70.93-.01 106.39-4.57-.02-9.14-.02-13.7 0-.02-35.46.01-70.93-.02-106.39m-72.58 114.19c4.32-.01 8.63-.01 12.95 0 .09 4.41.05 8.83.06 13.25-4.36 0-8.72.05-13.07-.07.1-4.39.07-8.79.06-13.18"/>
  <path fill="#FFF013" d="M308.36 112.37c14.66-14.28 30.04-27.8 45.64-41.03 26.37 22.36 52.12 45.64 74.86 71.75 16.85 19.68 32.41 41.14 41.24 65.71 6.72 18.52 8.49 39.15 2.94 58.21-6.36 22.75-21.24 42.01-38.04 58.14-54-.01-108 0-162 0-18.73-17.92-35.1-40.03-39.89-66.03-4.59-23.7 1.93-48.09 13.02-69.06 15.7-29.51 38.51-54.44 62.23-77.69m2.57 1.55c-.95.94-2.19 1.98-1.69 3.48 1.79 13.47 1.16 27.22-1.9 40.46 2.58-1.84 5.39-3.35 8.41-4.35 4.81-20.8 20.86-36.71 38.25-47.94 17.39 11.22 33.43 27.14 38.25 47.94 3 1 5.84 2.44 8.5 4.16-3.15-12.61-3.9-25.75-2.62-38.67.08-1.73.72-3.89-1.04-5.03C383.17 100.6 368.81 87.68 354 75.3c-14.81 12.35-29.13 25.3-43.07 38.62m14.18 24.14c-3.3 5.57-5.43 11.74-6.9 18.03-6.51 1.25-12.42 5.92-14.54 12.29-1.77 4.66-4.17 9.05-6.56 13.41 1.6-.67 3.15-1.55 4.9-1.78 2.69-.17 4.74 1.8 6.77 3.24-.58-10.17 6.74-18.43 14.63-23.79 2.22-16.6 14.78-28.93 26.88-39.31 1.53-1.05 3.42-3.8 5.25-1.74 12.95 10.72 26.62 23.5 29.05 41.06 7.89 5.35 15.21 13.61 14.62 23.78 2.05-1.46 4.13-3.44 6.86-3.24 1.73.24 3.25 1.16 4.87 1.79-2.67-4.75-5.22-9.59-7.1-14.71-1.96-6.08-8.08-9.73-14.04-10.98-1.54-6.53-3.77-12.93-7.28-18.67-6.93-11.7-17.45-20.73-28.52-28.38-11.28 7.76-21.95 17.03-28.89 29m-26.39-11.92c2.06 14.46.41 30.74-9.48 42.2 2.01 7-.86 14.22-5.49 19.49-8.38 9.68-19.85 15.9-31.03 21.76-.02 2.72-.12 5.43-.29 8.15 16.58-8.98 31.98-21.11 41.94-37.37 11.42-18.17 14.64-40.48 12.01-61.54-2.81 2.16-5.14 4.84-7.66 7.31m102.55-7.99c-2 18.4.06 37.58 8.11 54.4 9.42 20.01 26.99 34.9 46.18 45.19-.17-2.71-.27-5.42-.27-8.13-11.18-5.89-22.68-12.08-31.05-21.79-4.6-5.23-7.5-12.44-5.47-19.39-9.85-11.55-11.57-27.81-9.5-42.33-2.69-2.63-5.3-5.33-8-7.95m-68.02 24.17c-3.83 5.58-6.19 12.08-6.99 18.79-7.43 4.87-15.08 12.27-14.37 21.93-.38 6 5.94 9.29 11.04 10.09 10.67 1.43 23.25-4.29 26.44-15.17 1.59-4.58-.66-10.3-5.46-11.77-6.79-2.69-14.2.86-18.93 5.78-2.53 2.6-2.24 6.75-.57 9.73 3.29 1.76 8.1 1.22 10.24-2.07 1.47-2.1 1.08-4.76 1.03-7.16.98-.15 1.98-.29 2.97-.44.09 2.86.44 5.94-1.09 8.51-2.81 5.32-10.62 6.75-15.34 3.22-2.31-3.58-3.02-8.53-.58-12.23 2.63-4.42 7.73-6.12 11.77-8.8 3.06-13.2 10.25-25.46 20.59-34.27 10.36 8.81 17.55 21.12 20.61 34.34 4.11 2.58 9.12 4.36 11.76 8.74 2.45 3.72 1.66 8.61-.54 12.24-4.78 3.46-12.55 2.12-15.39-3.23-1.55-2.58-1.19-5.67-1.09-8.54.99.16 1.98.32 2.98.49-.02 2.15-.44 4.49.65 6.47 1.34 2.93 4.89 4.1 7.9 3.61 4.93-.32 5.01-7.75 2.13-10.62-4.15-4.15-10.08-7.61-16.17-6.47-3.31.43-6.71 2.26-7.95 5.52-1.71 4.01-.18 8.57 2.11 12.02 3.01 4.88 8.38 7.69 13.69 9.36 6.41 1.86 14.19 1.36 19.2-3.47 2.75-2.48 2.34-6.64 2-9.97-1.35-7.93-7.83-13.55-14.14-17.83-.79-6.01-2.64-11.9-5.89-17.05-5.67-9.07-13.73-16.31-21.86-23.13-7.62 6.37-15.11 13.13-20.75 21.38m-49.22-.33c.71 10.35-.01 21.04-4.34 30.6-5.39 12.6-16.49 21.91-28.86 27.32.57 2.13 1.1 4.27 1.6 6.42 10.02-5.1 20-10.84 27.86-19.01 4.87-5.05 8.4-12.45 5.53-19.42 9.62-10.27 11.67-25.26 10.22-38.75-4.25 4.04-8.08 8.49-12.01 12.84m127.93-12.84c-1.45 13.5.6 28.5 10.23 38.77-2.91 6.95.65 14.37 5.52 19.4 7.85 8.18 17.85 13.91 27.86 19.01q.735-3.225 1.59-6.42c-10.06-4.49-19.4-11.25-25.38-20.65-7.21-10.92-8.86-24.44-7.77-37.23-3.95-4.36-7.79-8.83-12.05-12.88m-75.32 33.09c5.49-.26 11.85 1.26 14.66 6.46 3.5 6.2.5 13.8-3.91 18.69-8.68 9.11-24.44 12.54-34.87 4.37.04 2.04.06 4.09.07 6.14 6.38 3.94 13.73 6.96 21.36 6.4 6.43-.42 12.44-3.87 16.35-8.94 1.19-1.38 2.05-3.13 3.66-4.09 1.48.69 2.21 2.26 3.24 3.45 3.72 5.11 9.5 8.79 15.85 9.47 7.95.94 15.71-2.19 22.36-6.29 0-2.04.01-4.09.06-6.12-11.19 8.66-28.61 4.32-36.62-6.63-3.66-4.94-5.37-12.35-1.4-17.61 3.11-4.39 8.85-5.46 13.9-5.31-2.71-11.42-8.93-21.81-17.35-29.94-8.42 8.13-14.64 18.53-17.36 29.95m-64.51-6.08c-2.25 2.39-1.26 5.9-1.97 8.85-1.45 10.67-8.76 20.13-18.57 24.49-2.1.64-3.26 2.41-4.06 4.33.66 1.06 1.32 2.13 1.98 3.2 8.4-3.35 16.08-8.8 21.66-15.95 7.86-9.94 10.84-23.03 9.95-35.51-3.2 3.35-6.09 6.99-8.99 10.59m154.8-10.52c-.74 9.42.72 19.12 4.87 27.65 5.31 10.87 15.2 19.04 26.26 23.6 1.12-.66 1.64-2.01 2.51-2.95-.91-1.91-2-3.82-4.17-4.44-9.82-4.37-17.14-13.84-18.57-24.53-.71-2.96.27-6.48-2-8.86-2.89-3.56-5.72-7.16-8.9-10.47m-174.79 40.25c8.71-4.45 14.63-13.56 15.25-23.31-5.67 7.34-11.18 14.95-15.25 23.31m188.48-23.28c.61 9.74 6.54 18.85 15.25 23.28-4.11-8.33-9.56-15.96-15.25-23.28m-145.9 27.07c-5.2 8.46-8.31 18.17-9.24 28.04-17.82 10.83-22 38.35-7.96 53.8 14.18 15.19 38.86 16.5 56.28 6.34 6.98-4.13 13.1-10.73 14.49-18.96 1.91-9.52 1.4-20.41-4.93-28.26-6.52-8.08-17.33-11.16-27.36-11.26-.02-1.05-.03-2.1-.04-3.14 11.03.34 22.91 3.76 29.94 12.81 6.9 8.68 7.42 20.63 5.23 31.08-1.46 7.08-6.07 13.07-11.65 17.47-11.96 8.96-28.05 11.83-42.5 8.42-10.3-2.37-19.35-8.83-25.64-17.23-.04.76-.11 2.26-.15 3.01 7.16 9.68 16.95 17.68 28.48 21.47 11.51 3.85 24.79 3.19 35.33-3.11 9.12-5.32 15.55-14.77 17.59-25.08.94.01 1.89.03 2.84.05 2.03 10.29 8.46 19.71 17.55 25.02 10.31 6.17 23.27 6.94 34.61 3.36 11.85-3.7 21.95-11.84 29.24-21.76-.04-.74-.14-2.21-.18-2.95-7.43 10.12-19.06 17.05-31.6 18.28-15.47 1.67-32.57-3.19-42.68-15.54-5.67-6.78-6.9-16.01-6.58-24.56.29-7.84 3.36-15.74 9.22-21.09 7.31-6.77 17.6-9.6 27.4-9.46-.13.74-.39 2.22-.53 2.95-9.99.12-20.76 3.22-27.26 11.26-6.3 7.85-6.82 18.71-4.92 28.22 1.42 8.48 7.82 15.22 15.08 19.34 11.37 6.34 25.32 7.89 37.83 4.3 7.68-2.29 14.68-6.97 19.74-13.18 11.73-15.91 7.16-41.22-9.83-51.6-.77-8.4-3.21-16.63-7.01-24.14-2.12-3.97-4.57-8.25-8.74-10.35-3.16-.89-5.6 2.28-6.81 4.79-2.98 5.91-1.26 12.84 2.14 18.17-1.5.71-3.52.93-4.24 2.64-2.63 4.86-2.64 11.75 1.39 15.87 2.48 2.7 6.66 1.72 9.31-.21 4.11-3.15 5.84-8.49 6.06-13.49.13-2.26-.59-4.83-2.63-6.07-1.92-1-4.1.43-4.76 2.29-1.42 2.9-.04 6.01.58 8.93.76 1.54-1.45 1.66-2.37 1.95-2.22-4.93-3.27-12.25 2.09-15.56 3.76-2.61 8.44.6 9.57 4.47 1.5 5.13-.26 10.6-2.55 15.23 3.85 3.62 7.66 7.56 9.58 12.6 3.61 8.48 1.81 18.53-3.38 25.97-7.77 11.63-23.24 17.78-36.74 13.39-15.15-3.31-22.68-22.36-16.71-35.96 2.73-6.35 9.02-10.77 15.81-11.75 12.94-.58 25.08 11.62 23.68 24.66-.25 5.47-5.54 9.3-10.66 9.7-5.45.4-11.33-1.89-14.48-6.46-2.67-4.53-1.5-11.79 3.8-13.83 3.98-1.58 7.74 1.28 10.39 3.97l-2.13 2.01c-2.01-1.73-4.38-4.23-7.32-3.16-3.45 1.53-3.75 6.43-2.22 9.43 3.8 5.17 12.25 6.95 17.38 2.71 2.29-1.8 2.44-4.99 2.29-7.66-.68-8.55-7.51-16.08-15.85-17.87-7.87-2.05-16.33 3.53-18.61 11.1-2.64 8.47-.39 18.35 5.69 24.82 4.05 4.42 10.25 5.86 15.97 6.55 15.67 1.55 31.56-11.5 31.91-27.47.44-7.97-4.12-15.18-9.99-20.19-3.43 2.88-8.1 5.92-12.71 4.05-8.55-4.01-9.33-16.71-3.51-23.36 1.73-1.25-.12-3.08-.32-4.59-7.67 4.29-16.5 7.84-25.44 6.03-6.94-1.19-12.71-5.75-16.96-11.17-4.3 5.36-10.02 9.97-16.97 11.16-8.9 1.81-17.74-1.67-25.37-5.99l-1.4 3.44c6.48 6.18 6.58 18.7-1.26 23.79-4.67 3.11-10.34-.11-13.96-3.39-3.15 2.99-6.29 6.16-8.01 10.23-3.62 7.78-2.16 17.24 2.68 24.17 7.22 10.94 21.9 16.27 34.37 11.86 12.15-3.05 17.9-17.74 14.78-29.09-1.63-6.42-7.35-11.43-13.88-12.34-12.08-.96-23.66 11.68-20.25 23.64 3.14 5.97 11.74 5.63 16.63 2.06 3.98-2.28 4.56-8.82.9-11.6-3.02-1.76-5.87.92-7.99 2.82-.54-.48-1.61-1.44-2.15-1.92 2.58-2.71 6.31-5.56 10.27-4.09 6.06 2.23 6.97 11.23 2.65 15.52-5.11 5.14-14.24 6.83-20.12 2.04-3.54-2.46-4.21-7.18-3.73-11.16 1.33-11.42 12.14-20.87 23.67-20.42 7.33 1.01 13.98 6.14 16.41 13.19 3.52 10.07.43 22.08-7.33 29.35-4.28 4.1-10.31 5.55-16 6.38-17.94 2.23-36.24-13.17-36-31.47.01-8.67 5.16-16.23 11.49-21.71-2.84-5.66-5.28-13.82-.15-18.92 2.96-3.22 8.39-1.41 10.02 2.28 2.13 4.12.85 8.93-1.16 12.82-.64-.34-1.91-1.04-2.54-1.39 1.84-3.78 3.34-10.22-1.5-12.36-4.29-.42-5.29 5.02-4.58 8.25.52 6.48 5.17 14.18 12.56 13.4 4.16-1.46 5.96-6.24 5.82-10.34.01-3.98-1.33-9.11-5.98-9.76 2.63-4.55 4.64-9.92 3.16-15.19-.9-3.47-3.03-7.71-7.05-8.02-3.32.95-5.49 3.96-7.33 6.68m-41.96 31.16c-1.65.61-2.25 2.29-2.92 3.75 5.76 5.38 10.29 12.08 13.05 19.47 1 2.81 2.19 5.68 1.88 8.73.42.16 1.26.47 1.67.63-1.86-14.05 4.14-29.21 16.07-37.18.83-8.04 3.69-15.61 6.48-23.12a126.9 126.9 0 0 1-36.23 27.72m166.26-27.73c2.75 7.52 5.65 15.07 6.45 23.12 12.67 8.46 18.62 24.98 15.7 39.73-4.56 15.37 1.32 32.54 12.43 43.66.81-1.21 1.64-2.41 2.45-3.63-8.4-8.86-13.66-20.7-14.01-32.95-.64-14.38 5.59-28.7 16.11-38.44-.67-1.49-1.3-3.19-2.98-3.8-13.6-6.95-25.91-16.35-36.15-27.69m-173.55 5.09c-2.74 5.75-4.94 11.76-6.78 17.86 3.11 1.99 6.03 4.25 9.13 6.25 2.85-7.8 2.47-16.71-1.07-24.22-.32.03-.96.08-1.28.11m214.72 24.12c3.08-2.03 6.01-4.28 9.14-6.25-2-6.53-4.35-12.96-7.42-19.06-4.25 7.64-4.71 17.14-1.72 25.31m-224.63 7.85c4.02 2.22 7.64 5.13 10.51 8.72 10.68 13.44 10.31 33.88.07 47.47 1.25 2.41 2.61 4.76 4.05 7.07 11.21-11.6 15.48-29.22 11.07-44.69-3.37-12.59-12.45-23-23.43-29.69-.88 3.68-1.65 7.39-2.27 11.12m210.63 20.74c-3.51 14.96 1 31.41 11.57 42.55a90 90 0 0 0 4.09-7.12c-8.45-11.28-10.23-27.11-4.45-39.97 2.96-6.92 8.44-12.61 15.03-16.2-.61-3.73-1.38-7.44-2.27-11.12-11.63 7.06-21.07 18.37-23.97 31.86m-210.96-17.52c-1.91 17.05 1.19 34.9 9.55 49.93 1.41-2.48 2.79-4.98 3.78-7.65 5.78-14.84 1.05-34.18-13.33-42.28m228.29 49.93c7.76-15.3 11.32-32.84 9.25-49.92-17.03 9.62-20.4 34.63-9.25 49.92m-197.75-29.26c.23 5.67.49 11.41-.76 17-1.82 9.37-6.56 18-13.07 24.94.83 1.21 1.66 2.41 2.5 3.62 7.85-7.93 12.92-18.59 13.82-29.74.36-5.29.24-11.18-2.49-15.82m74.45 36.15c-10.71 8.22-25.33 10.38-38.22 6.86-12.53-3.23-23.43-11.24-31.45-21.26-2.16 9.89-7.24 18.99-14.24 26.26 5.26 7.22 11.43 13.72 17.74 20.02 53.32 0 106.63.04 159.94-.02 6.28-6.32 12.45-12.79 17.7-20-7.02-7.27-12.07-16.38-14.26-26.27-7.02 8.82-16.26 16.06-26.94 19.88-11.51 4.24-24.79 4.15-35.89-1.29-9.55-4.46-16.7-12.98-20.6-22.65-3.01 7.15-7.49 13.82-13.78 18.47m134.96 252.42c6.65-2.38 13.18-5.12 19.92-7.19 6.13 1.95 11.96 4.8 18.03 6.93-.42 1.11-.83 2.21-1.24 3.33-5.73-2.12-11.43-4.33-17.12-6.55-6.13 2.15-12.28 4.22-18.33 6.58-.32-.78-.94-2.33-1.26-3.1"/>
  <path fill="#FFF014" d="M262.07 538.1c6.32 1.71 12.69 3.25 19.03 4.89-.61.81-1.22 1.62-1.83 2.44-6.41-1.68-12.87-3.17-19.27-4.88.69-.82 1.38-1.64 2.07-2.45"/>
  <path fill="#872927" d="M31.25 730c4.82-1.4 9.85-1.06 14.8-1 205.3.01 410.6-.01 615.9 0 4.95-.06 9.98-.41 14.8 1z"/>
</svg>