<svg xmlns="http://www.w3.org/2000/svg" viewBox="0 0 25 25">
  <rect width="24" height="24" rx="100" ry="100"/>
  <path d="M11.9 4.298c-4.64 0-8.4 3.814-8.4 8.52v4.08h1.548v-.406c0-1.91 1.525-3.457 3.407-3.457 1.881 0 3.406 1.547 3.406 3.456v.407h1.548v-.406c0-2.777-2.219-5.026-4.954-5.026a4.88 4.88 0 0 0-2.86.923c.845-1.706 2.586-2.876 4.597-2.876 2.84 0 5.143 2.337 5.143 5.217v2.168h1.548V14.73c0-3.748-2.996-6.788-6.692-6.788A6.6 6.6 0 0 0 5.84 9.574C6.99 7.37 9.271 5.868 11.9 5.868c3.784 0 6.852 3.112 6.852 6.951v4.079H20.3v-4.08c0-4.706-3.761-8.52-8.4-8.52" fill="#fff"/>
</svg>
