<svg xmlns="http://www.w3.org/2000/svg" viewBox="0 2 512 509.64">
  <rect rx="119" width="510" height="510" fill="#1f1f1f"/>
  <path fill="#fff" d="m367.021 108.076-82.735 69.962h82.735zm-100.69 58.45L387.45 64.108v113.93h38.693v172.105h-46.478v108.005l-113.33-103.994v100.735h-20.428V354.202L129.991 457.697V350.143H85.057V178.038h46.479V63.322l114.37 101.95V65.478h20.428zm-35.05 31.94c-41.946.024-83.872 0-125.796 0v131.25h24.498V297.17zm49.734 0 98.65 98.788v32.462h26.049v-131.25c-41.54 0-83.129.024-124.7 0m-51.449-20.428-77.603-69.175v69.175zm16.34 148.891V212.69l-95.487 93.02v106.477zm20.703-114.026v113.835l92.628 84.996c0-35.382-.015-70.731-.015-106.11z"/>
</svg>
