<svg xmlns="http://www.w3.org/2000/svg" viewBox="0 -15 110 110">
  <path fill="#fff" opacity=".9" d="m29 5 13 54q17-16 44-27L84 7Z"/>
  <path fill="#F1D454" d="M110.9 25.5c-3.9 2.5-6.6 3.8-9.9 5.8-19.2 11.6-37.6 24.5-52 41.5l-6.8 8.4L21 47.6c4.7 3.8 16.5 14.3 21.3 16.7l15.5-11.7c10.9-7.6 41.4-24.2 53.1-27.1"/>
  <path fill="#1E3871" d="M37.2 56c1.6 1.3 3.2 2.5 4.5 3.4 3.5-16.9.6-35.2-8.7-51.1 15.6-.2 31.2-.4 46.7-.7 3.5 7.7 5.5 16 6 24.5 1.4-.7 2.7-1.4 4.1-2-.5-8.6-2.9-18-7.7-28.9H18.3C32.2 17.6 38.4 37.4 37.2 56"/>
  <path fill="#285EA4" d="M34.3 53.7c.4.4.9.7 1.3 1.1-.6-15.7-6.5-31.9-17.7-45.7H8c14.3 13.2 23.1 29.1 26.3 44.6"/>
  <path fill="#688DC1" d="m30.9 50.7 1.5 1.2c-4.2-11.7-11.5-23.2-21.9-33.2H0c13.4 9.6 23.7 20.7 30.9 32"/>
</svg>
