<svg xmlns="http://www.w3.org/2000/svg" viewBox="3 10 640 640">
  <rect x="30" y="10" width="600" height="600" rx="600" ry="600" fill="#6DBB45"/>
  <path fill="#6DBB45" d="M110 645q170 15 320-50l-245-25q-5 30-75 75"/>
  <path fill="#6DBB45" stroke="#6DBB45" d="m313.5 11 41 1 1 1h9l1 1 13 1 27 6 28 9q63 25 106.5 69.5l2 3q43.4 43.6 67 107l9 29 6 34 1 18 1 1v38l-1 1v12l-1 1-1 13-4 21-6 22-12 32q-13.8 30.2-32 56-16.9 22.6-37.5 41.5-70.4 62.1-173 92l-50 12h-5l-31 6-26 2-1 1-36 2-1 1h-91l-1-1-9.5-.5 2.5-2.5 22-10 14-9 21.5-20.5 12-17 4-8V572q-44.4-23.3-77-59.5-40.8-44.2-63-107l-8-28-5-28-1-21-1-1v-36l1-1 1-19 6-31 9-30 12-29q26.4-54.1 68.5-92.5 34.6-32.4 81-53l15-6 36-11 19-3 5-2 15-1 1-1h15zM597 233l-6 2-6 6-1 4v5l3 5 8 4q9 1 14-3l4-7v-3l-4-8q-3-6-12-5Zm-258 3-4 1-1 3v13l-1 1v68l1 1-1 2 1 16 3 5q7 2 11-1l1-1v-37l1-1-1-68-1-2zm144 0-5 2-1 4v97l1 5 3 2 11-1 1-1v-47l3-7q5-8 15-10h5l9 4 4 5 2 8v45l4 4q7 1 11-1v-6l1-1v-45l-3-11-3-5q-6-9-17-12-11-1-17 1l-11 7h-3v-33l-1-2-1-2zm-112 1-3 1-5 6q-2 9 4 12 6 1 10-1l4-6-1-6q-2-6-9-6Zm-76 7-2 1-4 5v16l-7 2-5 5 1 4q2 5 10 5l1 2v46l5 11 12 6h12l9-3q2-3 1-10l-2-3q-13 1-20-1l-1-2v-46q14 2 23-2 1-9-1-13l-4-1h-12l-6 1v-17l-1-3q-3-4-9-3Zm272 0-2 1-4 5v16l-6 1-5 5 1 6q3 5 10 4v48l4 9q4 6 14 8h11l10-4q2-3 1-9l-4-3h-15l-4-1-1-5v-43q14 2 23-2l1-9-2-3-6-2-14 1-2-1v-18l-1-2-1-2zM73 265l-11 5q-8 5-10 15-1 11 3 17l11 7 20 6 9 6q1 5-2 8l-5 4H77l-20-10-5 2-4 5 1 6 12 7 15 4h12l13-5q7-5 9-14 2-12-3-17-6-8-15-11l-14-4-8-4-3-3 1-3 7-6h10l14 6h6q4-2 3-10l-3-4-14-6q-8-2-18-1Zm78 0-20 10-1-6q-2-5-10-3l-3 4q2 6-1 8v84l4 7q7 1 10-1 4-9 2-25l-1-3 2-2q8 8 23 10l16-3 12-8 5-6 6-15v-17q-2-2-1-6l-9-16q-6-8-16-11-8-2-18-1Zm81 0q-12 2-19 9l-9 11-7 19q-1 9 2 15l10 17 13 8 14 4 13-1 16-8q11-8 15-24v-17l-8-17q-7-11-20-15l-5-1zm187 0q-10 2-16 7l-10 11-3 7-2 10q0 18 8 28 8 9 24 12h13l18-9h1q0 10-5 16l-6 5-7 2-17-1-16-8h-4q-5 3-6 9l1 3q5 6 13 8l15 4h16l5-1 14-7q7-5 10-13l2-6v-9l1-1v-18l-1-1v-16l1-1-1-2 1-4v-2l-1-2v-15l-1-2q-2-5-8-4l-6 10-15-9q-8-2-18-1Zm-51 1-3 1-1 5v69l3 5q7 1 11-1l1-2v-31l1-1-1-41q-2-6-11-4Z"/>
  <path fill="#F2F7EC" stroke="#F2F7EC" d="M596.5 233q9.7-1.2 12.5 4.5l4 8v3l-4.5 7.5q-4.5 4.1-14 3l-7.5-4-3-5.5v-5l1-4 5.5-5.5zm.5 5-7 2q-2 3-1 10l9 6 7-6h2q1-6-2-9-1-4-8-3Zm-258.5-2h9l1.5 1.5 1 68-1 1v37l-1.5 1.5q-3.5 2.5-11 1l-2.5-5.5-1-16 1-2-1-1v-68l1-1v-13l1-2.5zm144 0h8l1.5 1.5 1 2V273h2.5l11-7q6.7-2.3 17-1 11.6 2.9 17.5 11.5l3 5 3 11v45l-1 1v6.5q-3.8 1.8-11.5 1l-3.5-4.5v-45l-2-8-4.5-4.5-9-4h-5q-10 2-14.5 9.5l-3 7v47l-1.5 1.5-11 1-2.5-2.5-1-5v-97l1-3.5zm-112 1q7.3.3 9.5 5.5l1 6-4.5 6.5q-3.2 2.3-10 1-5.2-2.7-3.5-12.5l4.5-5.5z"/>
  <path fill="#F2F7EC" stroke="#F2F7EC" d="M595.5 240q6.3-1.2 7.5 2.5 1.5 7-2.5 8.5l-6.5 1-2-8.5 1-2.5zm-301 4q6.9-.9 9.5 2.5l1 3V267l5.5-1h12l4.5 1q2.3 3.6 1 12.5-9 4.2-23 2.5v45.5l1 2.5q7.1 2.3 19.5 1l2.5 2.5q1 7.5-1 10.5l-9.5 3h-12l-11.5-6.5-5-11v-46l-1.5-1.5q-7.2-.2-9.5-5.5l-1-4 4.5-4.5 7.5-2v-16.5l3.5-4.5zm272 0h8l1.5 1.5 1 2v18l1.5 1.5 14-1 6 2 2.5 2.5-1 9.5q-8.7 3.6-23 2v42.5l1 5.5 3.5 1h15l4.5 2.5q.9 6.8-1 9.5l-10.5 4h-11q-9.1-1.9-13.5-8.5l-4-9V282q-7.3.6-10-4.5l-1-6 4.5-4.5 6.5-1v-16.5l3.5-4.5zm-494 21q10.9-1.4 18 1l14 6 3.5 3.5q1.3 8.3-3.5 10.5h-6l-14-6h-10l-6.5 5.5-1 3 2.5 3.5 8 4 14 4q9.7 3.3 15.5 10.5 4.8 5.2 3 17-2.4 9.6-9.5 14.5l-13 5h-12l-15-4-11.5-7.5-1-6 3.5-4.5 5-2 20 10h11l5.5-4.5q2.7-2.3 2-8l-9.5-5.5-20-6-10.5-7.5q-4.5-5.5-3-17 2.4-9.6 9.5-14.5zm78 0q10.9-1.4 18 1 10.2 3.3 16.5 10.5l9 16q-1.2 4.8 1 6v17l-6 15-5.5 6.5-12 8-16 3q-14-2.5-23-10l-1.5 1.5 1 3q1.8 16.3-2 25.5-3 2-10.5 1l-3.5-7.5v-84q2.8-1.7 1-8l2.5-3.5q8.5-2 10.5 2.5l1 6.5zm1.5 15-13 7-7 12-1 5v8l4 9q6 9 20 12 9 0 14-4 8-5 10-17 2-15-4-21-7-11-23-11Zm79.5-15h15l5 1q13.2 4.3 20.5 14.5l8 17v17q-3.8 16.2-15.5 24.5l-16 8-13 1-14-4-12.5-8.5-10-17q-3.1-5.4-2-15l7-19 8.5-10.5q7.5-6.5 19-9Zm3.5 15-8 3q-10 6-13 19v9l6 12q5 7 16 10 13 1 20-6 6-6 8-15 2-14-4-20-7-12-25-12Zm183.5-15q10.9-1.4 18 1l15 9 6-10q6.9-.9 8.5 3.5l1 2v15l1 2v2l-1 4 1 2-1 1v16l1 1v18l-1 1v9l-2 6q-3.2 8.8-10.5 13.5l-14 7-5 1h-16l-15-4q-8-2.5-12.5-8.5l-1-3q1.3-5.7 5.5-8.5h4l16 8 17 1 7-2 6.5-5.5q4.8-5.7 5-16l-1.5.5-18 9h-13q-15.2-2.8-23.5-12.5-8.5-9.5-8-28l2-10 3-7 9.5-10.5q6.4-5.1 16-7Zm3.5 15-7 3q-8 6-11 17v7l5 10q5 7 16 9l10-1 9-5 8-13q2-10-2-14-5-8-14-12zm-54.5-14q9-1.5 11.5 3.5l1 41-1 1v31l-1 2.5q-3.8 1.8-11.5 1l-2.5-5.5v-69l1-4.5z"/>
</svg>
