<svg xmlns="http://www.w3.org/2000/svg" viewBox="2 0 44 44">
  <path fill="#F5BF00" d="M21.002 26.999V21h13.001v5.999z"/>
  <path fill="#21A366" d="M34.003 32.999V27l6-2.001 6 2.001v5.999h-4l.001-2a2.002 2.002 0 0 0-4.002 0v2z"/>
  <path fill="#0A8645" d="M34.003 26.999V21h12v5.999z"/>
  <path fill="#438FFD" d="M2.004 23.999C2.004 17.928 6.931 13 13.003 13c5.031 0 9.276 3.385 10.583 8l-2.583.999L17 21a4.997 4.997 0 0 0-8.996 2.999 5 5 0 0 0 4.999 4.999 4.99 4.99 0 0 0 3.996-1.999l4.004-1 2.583 1c-1.307 4.616-5.553 7.999-10.583 7.999-6.072 0-10.999-4.927-10.999-10.999"/>
  <path fill="red" d="M18.002 23.999A4.98 4.98 0 0 0 17.001 21h6.585c.271.953.416 1.96.416 2.999 0 1.041-.145 2.048-.416 3h-6.587a4.96 4.96 0 0 0 1.003-3"/>
</svg>
