<svg xmlns="http://www.w3.org/2000/svg" viewBox="-8 1 65 65">
  <path d="M30.416.958H5.271A4.45 4.45 0 0 0 .833 5.396v56.208a4.45 4.45 0 0 0 4.438 4.438h38.458c2.44 0 4.438-2.44 4.438-4.438V18.708l-10.355-7.396z" fill="#0F9D58"/>
  <path d="M12.666 32.76v21.448h23.667V32.76zM23.02 51.25h-7.395v-3.698h7.396zm0-5.917h-7.395v-3.698h7.396zm0-5.917h-7.395v-3.698h7.396zM33.374 51.25h-7.395v-3.698h7.396zm0-5.917h-7.395v-3.698h7.396zm0-5.917h-7.395v-3.698h7.396z" fill="#F1F1F1"/>
  <path d="M30.416.958v13.313a4.437 4.437 0 0 0 4.438 4.437h13.312z" fill="#87CEAC"/>
  <path d="M29.583 0H4.438A4.45 4.45 0 0 0 0 4.438v56.208a4.45 4.45 0 0 0 4.438 4.438h38.458c2.44 0 4.438-2.44 4.438-4.438V17.75z" fill="url(#radialGradient-16)" transform="translate(.833 .958)"/>
</svg>
