<svg viewBox="-150 -150 1200 1200" xmlns="http://www.w3.org/2000/svg">
    <rect x="-150" y="-150" width="1200" height="1200" rx="280" fill="#fff" opacity=".9" />
    <path
        style="fill:none;stroke:#000;stroke-width:68;stroke-linecap:round;stroke-linejoin:round"
        d="M377.87 204.445H237.224m140.646 491.86H237.224M44.007 450.582h334.226m11.889 365.829H355.82zm0-244.024c67.386 0 122.013 54.627 122.013 122.012 0 67.386-54.627 122.012-122.013 122.012m0-732.922H355.82zm0 488.898H117.421m272.701-244.874H117.421m272.701 0c9.259 0 18.276 1.88 26.944 3.834 54.421 12.267 95.069 60.9 95.069 119.028 0 67.385-54.627 122.012-122.013 122.012m0-488.898c67.386 0 122.013 54.627 122.013 122.012 0 67.386-54.627 122.012-122.013 122.012" />
    <path
        style="fill:none;stroke:#000;stroke-width:68;stroke-linecap:round;stroke-linejoin:round"
        d="M665.607 313.656c0-36.554-20.93-69.879-53.858-85.751a95.19 95.19 0 0 0-100.631 11.28m297.28-7.97a95.2 95.2 0 0 0-95.193 0 95.2 95.2 0 0 0-47.598 82.441m2.048 210.03a95.193 95.193 0 0 0-140.773-64.862l.046.02a95 95 0 0 0-16.274 11.72m157.001 53.122c8.904 42.224 45 72.918 87.63 75.374l-.017.11a95.2 95.2 0 0 0 26.509-2.166" />
    <path
        style="fill:none;stroke:#000;stroke-width:68;stroke-linecap:round;stroke-linejoin:round"
        d="M474.213 798.357a96 96 0 0 1-4.59-10.63m306.374-567.765A210.83 210.83 0 0 0 673.055 76.897a210.82 210.82 0 0 0-222.857 9.3M760.802 408.85c38.502 0 73.214-23.193 87.948-58.766 14.734-35.571 6.588-76.516-20.637-103.741a95.2 95.2 0 0 0-52.116-26.38M651.123 730.766c22.06 33.771 63.01 49.972 102.204 40.435s68.122-42.74 72.199-82.872c3.713-36.594-13.99-72.054-45.469-91.08 46.652-9.636 78.999-52.274 75.71-99.796-3.462-49.897-44.948-88.605-94.965-88.604M474.526 798.955c22.257 43.26 73.552 62.778 118.936 45.253s70.253-66.45 57.661-113.441M450.198 86.197a211 211 0 0 0-8.922 6.704" />
</svg>